<?xml version="1.0" encoding="utf-8" standalone="no"?>
<svg version="1.2" width="500.000000pt" height="500.000000pt" viewBox="0 0 500.000000 500.000000" preserveAspectRatio="xMidYMid meet" baseProfile="tiny-ps" xmlns="http://www.w3.org/2000/svg">
  <title>EighTwOne</title>
  <metadata>
Created by potrace 1.16, written by Peter Selinger 2001-2019
</metadata>
  <g transform="translate(0.000000,500.000000) scale(0.100000,-0.100000)" fill="#000000" stroke="none">
    <path d="M2610 4340 c-30 -16 -58 -38 -62 -49 -4 -12 -14 -21 -21 -21 -24 0 -27 -94 -27 -862 l0 -739 57 -60 56 -59 797 0 797 0 19 21 c10 12 28 25 40 29 12 5 30 26 40 47 18 36 19 69 16 808 l-3 769 -77 73 -76 73 -750 -1 -751 -1 -55 -28z m1019 -429 c144 -6 145 -6 151 -31 4 -14 5 -42 2 -62 -5 -48 -35 -58 -154 -56 -60 2 -92 -2 -100 -10 -10 -10 -14 -102 -18 -377 -3 -200 -8 -366 -12 -370 -11 -11 -132 -17 -145 -7 -9 6 -15 93 -23 323 -5 172 -10 339 -10 370 l0 57 -125 3 c-76 3 -128 8 -136 16 -16 16 -23 96 -10 121 9 17 23 22 74 25 104 6 354 5 506 -2z" />
    <path d="M725 4288 c-25 -28 -52 -63 -59 -77 -11 -21 -14 -182 -17 -766 -4 -709 -3 -742 15 -778 10 -21 30 -44 45 -52 14 -8 22 -15 16 -15 -5 0 1 -7 15 -15 21 -12 149 -14 815 -15 766 0 791 1 822 20 66 40 63 -3 63 869 l0 791 -43 45 -44 45 -790 0 -791 0 -47 -52z m1107 -349 c25 -13 26 -130 1 -150 -12 -10 -65 -15 -199 -19 -100 -3 -185 -8 -189 -12 -11 -10 -18 -123 -11 -162 6 -33 10 -36 39 -35 72 3 313 -14 325 -24 7 -6 12 -35 12 -78 0 -57 -3 -70 -19 -79 -12 -6 -92 -10 -191 -10 l-171 0 2 -109 1 -109 31 -6 c68 -14 254 -19 261 -7 9 15 61 14 89 -1 57 -32 62 -41 61 -96 -2 -83 4 -81 -309 -82 -148 0 -287 3 -307 6 l-38 7 0 478 c0 437 1 479 17 495 16 15 41 16 297 9 155 -4 289 -11 298 -16z" />
    <path d="M2587 2495 c-15 -14 -34 -25 -41 -25 -8 0 -17 -11 -20 -25 -4 -14 -11 -25 -16 -25 -7 0 -10 -285 -10 -804 0 -702 2 -805 15 -816 8 -7 15 -18 15 -24 0 -14 42 -54 82 -79 25 -16 94 -17 808 -17 l780 0 0 24 c0 16 13 34 38 54 20 16 47 49 60 72 l22 42 0 758 c0 495 -3 761 -10 765 -5 3 -10 22 -10 41 0 27 -4 34 -19 34 -10 0 -24 7 -31 15 -7 8 -21 15 -31 15 -10 0 -21 5 -24 10 -4 7 -279 10 -793 10 l-787 -1 -28 -24z m773 -307 c49 -45 90 -86 90 -91 0 -5 42 -53 93 -106 189 -199 247 -281 233 -334 -8 -33 -142 -142 -441 -360 -300 -220 -299 -219 -364 -220 -100 -3 -142 51 -91 116 35 44 462 356 522 381 37 16 108 83 108 102 0 7 -90 117 -200 246 -111 128 -203 243 -207 256 -8 35 20 67 69 79 86 21 91 19 188 -69z m461 -975 c33 -35 31 -57 -7 -101 l-36 -42 -198 0 c-192 0 -200 1 -224 23 -38 33 -42 68 -14 102 34 39 76 45 282 40 157 -3 181 -6 197 -22z" />
    <path d="M685 2450 l-25 -40 0 -796 0 -795 63 -70 62 -69 736 0 c643 0 738 2 749 15 7 8 29 15 49 15 30 0 44 7 72 38 75 79 69 4 69 875 0 766 0 784 -20 825 l-20 42 -855 0 -855 0 -25 -40z m1078 -404 c137 -66 224 -185 253 -346 16 -85 16 -97 0 -183 -21 -110 -30 -136 -72 -202 -84 -131 -231 -215 -376 -215 -289 0 -495 225 -475 520 7 93 14 121 61 224 37 82 118 162 204 203 79 37 112 43 230 38 92 -4 110 -7 175 -39z" />
    <path d="M1464 1886 c-51 -22 -100 -73 -125 -128 -33 -74 -34 -239 -2 -309 50 -111 137 -167 239 -155 71 8 103 25 148 77 119 139 87 435 -54 507 -51 26 -155 30 -206 8z" />
  </g>
</svg>