<?xml version="1.0" encoding="utf-8"?>
<svg version="1.2" width="200px" height="200px" xmlns:xlink="http://www.w3.org/1999/xlink" baseProfile="tiny-ps" xmlns="http://www.w3.org/2000/svg">
  <title>ETO</title>
  <g>
    <path fill="#e9e9e9" d="M -0.5,-0.5 C 1.5,-0.5 3.5,-0.5 5.5,-0.5C 4.83333,0.166667 4.16667,0.833333 3.5,1.5C 2.16667,1.5 1.5,2.16667 1.5,3.5C 0.833333,3.83333 0.166667,4.16667 -0.5,4.5C -0.5,2.83333 -0.5,1.16667 -0.5,-0.5 Z" />
  </g>
  <g>
    <path fill="#034a75" d="M 5.5,-0.5 C 34.8333,-0.5 64.1667,-0.5 93.5,-0.5C 93.5,-0.166667 93.5,0.166667 93.5,0.5C 93.5,0.833333 93.5,1.16667 93.5,1.5C 63.5421,0.181192 33.5421,0.181192 3.5,1.5C 4.16667,0.833333 4.83333,0.166667 5.5,-0.5 Z" />
  </g>
  <g>
    <path fill="#eeeeee" d="M 93.5,0.5 C 93.5,0.166667 93.5,-0.166667 93.5,-0.5C 97.5,-0.5 101.5,-0.5 105.5,-0.5C 104.306,0.271873 103.306,1.27187 102.5,2.5C 101.272,3.30646 100.272,4.30646 99.5,5.5C 98.6905,2.35379 96.6905,0.687125 93.5,0.5 Z" />
  </g>
  <g>
    <path fill="#f0f0f0" d="M 193.5,0.5 C 193.5,0.166667 193.5,-0.166667 193.5,-0.5C 195.5,-0.5 197.5,-0.5 199.5,-0.5C 199.5,2.16667 199.5,4.83333 199.5,7.5C 198.982,3.97588 196.982,1.64254 193.5,0.5 Z" />
  </g>
  <g>
    <path fill="#0677bc" d="M 93.5,1.5 C 95.7525,1.91563 97.2525,3.24896 98,5.5C 98.5,35.4981 98.6666,65.4981 98.5,95.5C 97.0384,96.4577 95.7051,97.6244 94.5,99C 64.1247,99.8177 33.7913,99.651 3.5,98.5C 2.16667,98.5 1.5,97.8333 1.5,96.5C 0.166667,65.5 0.166667,34.5 1.5,3.5C 1.5,2.16667 2.16667,1.5 3.5,1.5C 33.5421,0.181192 63.5421,0.181192 93.5,1.5 Z" />
  </g>
  <g>
    <path fill="#0176d1" d="M 105.5,-0.5 C 134.833,-0.5 164.167,-0.5 193.5,-0.5C 193.5,-0.166667 193.5,0.166667 193.5,0.5C 194.458,1.9616 195.624,3.29493 197,4.5C 197.818,35.2087 197.651,65.8753 196.5,96.5C 195.833,96.5 195.5,96.8333 195.5,97.5C 164.833,98.8333 134.167,98.8333 103.5,97.5C 102.167,97.5 101.5,96.8333 101.5,95.5C 101.167,94.1667 100.833,92.8333 100.5,91.5C 100.333,63.498 100.5,35.498 101,7.5C 101.608,5.84552 102.108,4.17885 102.5,2.5C 103.306,1.27187 104.306,0.271873 105.5,-0.5 Z" />
  </g>
  <g>
    <path fill="#044771" d="M 1.5,3.5 C 0.166667,34.5 0.166667,65.5 1.5,96.5C 0.833333,96.1667 0.166667,95.8333 -0.5,95.5C -0.5,65.1667 -0.5,34.8333 -0.5,4.5C 0.166667,4.16667 0.833333,3.83333 1.5,3.5 Z" />
  </g>
  <g>
    <path fill="#054b84" d="M 102.5,2.5 C 102.108,4.17885 101.608,5.84552 101,7.5C 100.5,35.498 100.333,63.498 100.5,91.5C 99.502,63.0049 99.1687,34.3382 99.5,5.5C 100.272,4.30646 101.272,3.30646 102.5,2.5 Z" />
  </g>
  <g>
    <path fill="#f9fbfd" d="M 36.5,15.5 C 39.4747,15.3069 41.9747,16.3069 44,18.5C 51.9625,28.1311 60.2958,37.4645 69,46.5C 70.5948,48.4248 70.7615,50.4248 69.5,52.5C 54.6994,64.3095 39.3661,75.3095 23.5,85.5C 19.4754,84.7834 17.9754,82.4501 19,78.5C 31.0242,68.9751 43.1909,59.6418 55.5,50.5C 47.6667,41.5 39.8333,32.5 32,23.5C 31.4795,21.7111 31.8129,20.0444 33,18.5C 34.5185,17.8366 35.6851,16.8366 36.5,15.5 Z" />
  </g>
  <g>
    <path fill="#fcfdfe" d="M 165.5,23.5 C 165.5,26.1667 165.5,28.8333 165.5,31.5C 157.833,31.5 150.167,31.5 142.5,31.5C 142.5,35.8333 142.5,40.1667 142.5,44.5C 149.313,45.4912 156.313,45.8245 163.5,45.5C 163.5,48.1667 163.5,50.8333 163.5,53.5C 156.313,53.1755 149.313,53.5088 142.5,54.5C 142.5,58.8333 142.5,63.1667 142.5,67.5C 150.5,67.5 158.5,67.5 166.5,67.5C 166.5,70.1667 166.5,72.8333 166.5,75.5C 155.167,75.5 143.833,75.5 132.5,75.5C 132.5,58.1667 132.5,40.8333 132.5,23.5C 143.5,23.5 154.5,23.5 165.5,23.5 Z" />
  </g>
  <g>
    <path fill="#92c5ec" d="M 165.5,23.5 C 154.5,23.5 143.5,23.5 132.5,23.5C 132.5,40.8333 132.5,58.1667 132.5,75.5C 143.833,75.5 155.167,75.5 166.5,75.5C 155.012,76.4949 143.345,76.8283 131.5,76.5C 131.5,58.5 131.5,40.5 131.5,22.5C 143.012,22.1719 154.346,22.5052 165.5,23.5 Z" />
  </g>
  <g>
    <path fill="#051b29" d="M 93.5,1.5 C 93.5,1.16667 93.5,0.833333 93.5,0.5C 96.6905,0.687125 98.6905,2.35379 99.5,5.5C 99.1687,34.3382 99.502,63.0049 100.5,91.5C 100.833,92.8333 101.167,94.1667 101.5,95.5C 100.5,94.1667 99.5,94.1667 98.5,95.5C 98.6666,65.4981 98.5,35.4981 98,5.5C 97.2525,3.24896 95.7525,1.91563 93.5,1.5 Z" />
  </g>
  <g>
    <path fill="#2f4b6d" d="M 193.5,0.5 C 196.982,1.64254 198.982,3.97588 199.5,7.5C 199.5,35.5 199.5,63.5 199.5,91.5C 198.935,93.42 197.935,95.0867 196.5,96.5C 197.651,65.8753 197.818,35.2087 197,4.5C 195.624,3.29493 194.458,1.9616 193.5,0.5 Z" />
  </g>
  <g>
    <path fill="#57a3e1" d="M 142.5,44.5 C 149.833,44.5 157.167,44.5 164.5,44.5C 164.5,47.8333 164.5,51.1667 164.5,54.5C 157.167,54.5 149.833,54.5 142.5,54.5C 149.313,53.5088 156.313,53.1755 163.5,53.5C 163.5,50.8333 163.5,48.1667 163.5,45.5C 156.313,45.8245 149.313,45.4912 142.5,44.5 Z" />
  </g>
  <g>
    <path fill="#f6fafc" d="M 44.5,73.5 C 54.1724,73.3335 63.8391,73.5002 73.5,74C 76.418,77.4719 76.0846,80.4719 72.5,83C 63.8333,83.6667 55.1667,83.6667 46.5,83C 45.5838,82.6258 44.7504,82.1258 44,81.5C 43.2782,78.7395 43.4448,76.0728 44.5,73.5 Z" />
  </g>
  <g>
    <path fill="#e7e7e7" d="M 199.5,91.5 C 199.5,96.1667 199.5,100.833 199.5,105.5C 199.167,105.5 198.833,105.5 198.5,105.5C 197.97,102.969 196.636,100.969 194.5,99.5C 194.863,98.8165 195.196,98.1499 195.5,97.5C 195.5,96.8333 195.833,96.5 196.5,96.5C 197.935,95.0867 198.935,93.42 199.5,91.5 Z" />
  </g>
  <g>
    <path fill="#f0f0f0" d="M 101.5,95.5 C 101.5,96.8333 102.167,97.5 103.5,97.5C 104.833,98.8333 104.833,100.167 103.5,101.5C 101.5,101.5 100.5,102.5 100.5,104.5C 99.8333,104.5 99.1667,104.5 98.5,104.5C 98.573,102.973 97.9063,101.973 96.5,101.5C 96.3893,100.883 96.056,100.383 95.5,100C 97.1412,98.871 98.1412,97.371 98.5,95.5C 99.5,94.1667 100.5,94.1667 101.5,95.5 Z" />
  </g>
  <g>
    <path fill="#eaeaea" d="M -0.5,95.5 C 0.166667,95.8333 0.833333,96.1667 1.5,96.5C 1.5,97.8333 2.16667,98.5 3.5,98.5C 3.83333,99.1667 4.16667,99.8333 4.5,100.5C 2.5,100.5 1.5,101.5 1.5,103.5C 0.833333,104.167 0.166667,104.833 -0.5,105.5C -0.5,102.167 -0.5,98.8333 -0.5,95.5 Z" />
  </g>
  <g>
    <path fill="#1a365a" d="M 98.5,95.5 C 98.1412,97.371 97.1412,98.871 95.5,100C 96.056,100.383 96.3893,100.883 96.5,101.5C 93.607,100.924 90.607,100.924 87.5,101.5C 59.8015,101.808 32.1348,101.475 4.5,100.5C 4.16667,99.8333 3.83333,99.1667 3.5,98.5C 33.7913,99.651 64.1247,99.8177 94.5,99C 95.7051,97.6244 97.0384,96.4577 98.5,95.5 Z" />
  </g>
  <g>
    <path fill="#092b48" d="M 103.5,97.5 C 134.167,98.8333 164.833,98.8333 195.5,97.5C 195.196,98.1499 194.863,98.8165 194.5,99.5C 196.636,100.969 197.97,102.969 198.5,105.5C 198.167,105.5 197.833,105.5 197.5,105.5C 196.718,103.549 195.384,102.049 193.5,101C 163.458,100.183 133.458,100.349 103.5,101.5C 104.833,100.167 104.833,98.8333 103.5,97.5 Z" />
  </g>
  <g>
    <path fill="#147dd6" d="M 197.5,105.5 C 197.666,114.839 197.5,124.173 197,133.5C 190.76,137.327 184.426,140.994 178,144.5C 177.768,143.263 177.268,142.263 176.5,141.5C 169.31,122.799 155.977,116.633 136.5,123C 126.712,129.074 122.045,137.907 122.5,149.5C 122.46,153.964 123.127,158.297 124.5,162.5C 123.957,162.56 123.624,162.893 123.5,163.5C 124.868,167.37 127.202,170.536 130.5,173C 120.094,177.85 110.094,183.35 100.5,189.5C 100.5,161.167 100.5,132.833 100.5,104.5C 101.833,103.833 102.833,102.833 103.5,101.5C 133.458,100.349 163.458,100.183 193.5,101C 195.384,102.049 196.718,103.549 197.5,105.5 Z" />
  </g>
  <g>
    <path fill="#323242" d="M 4.5,100.5 C 3.83333,101.833 2.83333,102.833 1.5,103.5C 1.5,101.5 2.5,100.5 4.5,100.5 Z" />
  </g>
  <g>
    <path fill="#535bbf" d="M 4.5,100.5 C 32.1348,101.475 59.8015,101.808 87.5,101.5C 77.5474,108.117 67.214,114.284 56.5,120C 46.7796,119.855 37.4462,120.689 28.5,122.5C 27.1667,125.5 27.1667,128.5 28.5,131.5C 32.97,132.486 37.6367,132.819 42.5,132.5C 42.7683,135.119 42.435,137.619 41.5,140C 27.7144,147.885 14.0477,155.718 0.5,163.5C 0.214787,143.473 0.54812,123.473 1.5,103.5C 2.83333,102.833 3.83333,101.833 4.5,100.5 Z" />
  </g>
  <g>
    <path fill="#3c3c51" d="M 96.5,101.5 C 97.9063,101.973 98.573,102.973 98.5,104.5C 97.0937,104.027 96.427,103.027 96.5,101.5 Z" />
  </g>
  <g>
    <path fill="#2d3845" d="M 103.5,101.5 C 102.833,102.833 101.833,103.833 100.5,104.5C 100.5,102.5 101.5,101.5 103.5,101.5 Z" />
  </g>
  <g>
    <path fill="#4d55bc" d="M 96.5,101.5 C 96.427,103.027 97.0937,104.027 98.5,104.5C 98.5,114.5 98.5,124.5 98.5,134.5C 84.6331,141.675 70.9665,149.342 57.5,157.5C 56.5021,149.193 56.1688,140.86 56.5,132.5C 61.6946,132.821 66.6946,132.487 71.5,131.5C 71.5,131.167 71.5,130.833 71.5,130.5C 71.5,128.167 71.5,125.833 71.5,123.5C 57.3431,122.504 43.0097,122.171 28.5,122.5C 37.4462,120.689 46.7796,119.855 56.5,120C 67.214,114.284 77.5474,108.117 87.5,101.5C 90.607,100.924 93.607,100.924 96.5,101.5 Z" />
  </g>
  <g>
    <path fill="#f9fcfe" d="M 176.5,141.5 C 177.841,168.666 165.174,180.166 138.5,176C 132.034,173.367 127.367,168.867 124.5,162.5C 123.127,158.297 122.46,153.964 122.5,149.5C 122.045,137.907 126.712,129.074 136.5,123C 155.977,116.633 169.31,122.799 176.5,141.5 Z" />
  </g>
  <g>
    <path fill="#c4c6e9" d="M 28.5,122.5 C 43.0097,122.171 57.3431,122.504 71.5,123.5C 57.1667,123.5 42.8333,123.5 28.5,123.5C 28.5,125.833 28.5,128.167 28.5,130.5C 34.0262,130.179 39.3595,130.512 44.5,131.5C 39.1667,131.5 33.8333,131.5 28.5,131.5C 27.1667,128.5 27.1667,125.5 28.5,122.5 Z" />
  </g>
  <g>
    <path fill="#fefefe" d="M 71.5,123.5 C 71.5,125.833 71.5,128.167 71.5,130.5C 65.8333,130.5 60.1667,130.5 54.5,130.5C 54.5,145.5 54.5,160.5 54.5,175.5C 51.1667,175.5 47.8333,175.5 44.5,175.5C 44.5,160.833 44.5,146.167 44.5,131.5C 39.3595,130.512 34.0262,130.179 28.5,130.5C 28.5,128.167 28.5,125.833 28.5,123.5C 42.8333,123.5 57.1667,123.5 71.5,123.5 Z" />
  </g>
  <g>
    <path fill="#1478d4" d="M 144.5,130.5 C 157.871,129.475 164.538,135.809 164.5,149.5C 163.966,164.221 156.633,170.055 142.5,167C 137.905,164.075 135.405,159.909 135,154.5C 132.562,143.98 135.729,135.98 144.5,130.5 Z" />
  </g>
  <g>
    <path fill="#8d92d4" d="M 71.5,130.5 C 71.5,130.833 71.5,131.167 71.5,131.5C 66.1667,131.5 60.8333,131.5 55.5,131.5C 55.8293,146.343 55.496,161.01 54.5,175.5C 54.5,160.5 54.5,145.5 54.5,130.5C 60.1667,130.5 65.8333,130.5 71.5,130.5 Z" />
  </g>
  <g>
    <path fill="#0f6cca" d="M 197.5,105.5 C 197.833,105.5 198.167,105.5 198.5,105.5C 198.833,105.5 199.167,105.5 199.5,105.5C 199.5,134.833 199.5,164.167 199.5,193.5C 198.607,195.297 197.274,196.63 195.5,197.5C 165.21,198.485 134.877,198.818 104.5,198.5C 103.5,196.833 102.167,195.5 100.5,194.5C 100.5,192.833 100.5,191.167 100.5,189.5C 110.094,183.35 120.094,177.85 130.5,173C 127.202,170.536 124.868,167.37 123.5,163.5C 123.624,162.893 123.957,162.56 124.5,162.5C 127.367,168.867 132.034,173.367 138.5,176C 165.174,180.166 177.841,168.666 176.5,141.5C 177.268,142.263 177.768,143.263 178,144.5C 184.426,140.994 190.76,137.327 197,133.5C 197.5,124.173 197.666,114.839 197.5,105.5 Z" />
  </g>
  <g>
    <path fill="#0e223f" d="M 98.5,104.5 C 99.1667,104.5 99.8333,104.5 100.5,104.5C 100.5,132.833 100.5,161.167 100.5,189.5C 100.5,191.167 100.5,192.833 100.5,194.5C 99.8333,194.167 99.1667,193.833 98.5,193.5C 98.5,173.833 98.5,154.167 98.5,134.5C 98.5,124.5 98.5,114.5 98.5,104.5 Z" />
  </g>
  <g>
    <path fill="#4047af" d="M 71.5,131.5 C 66.6946,132.487 61.6946,132.821 56.5,132.5C 56.1688,140.86 56.5021,149.193 57.5,157.5C 70.9665,149.342 84.6331,141.675 98.5,134.5C 98.5,154.167 98.5,173.833 98.5,193.5C 98.6716,194.492 98.3382,195.158 97.5,195.5C 95.7697,196.026 94.4363,197.026 93.5,198.5C 93.5,198.833 93.5,199.167 93.5,199.5C 64.1667,199.5 34.8333,199.5 5.5,199.5C 5.5,199.167 5.5,198.833 5.5,198.5C 11.2308,198.061 16.8974,197.227 22.5,196C 32.9971,190.252 43.3304,184.252 53.5,178C 50.5,177.667 47.5,177.333 44.5,177C 48.0252,176.821 51.3586,176.321 54.5,175.5C 55.496,161.01 55.8293,146.343 55.5,131.5C 60.8333,131.5 66.1667,131.5 71.5,131.5 Z" />
  </g>
  <g>
    <path fill="#313570" d="M 1.5,103.5 C 0.54812,123.473 0.214787,143.473 0.5,163.5C 0.333531,173.172 0.500198,182.839 1,192.5C 1.79142,193.745 2.29142,195.078 2.5,196.5C 1.27187,195.694 0.271873,194.694 -0.5,193.5C -0.5,164.167 -0.5,134.833 -0.5,105.5C 0.166667,104.833 0.833333,104.167 1.5,103.5 Z" />
  </g>
  <g>
    <path fill="#4a51ba" d="M 28.5,131.5 C 33.8333,131.5 39.1667,131.5 44.5,131.5C 44.5,146.167 44.5,160.833 44.5,175.5C 47.8333,175.5 51.1667,175.5 54.5,175.5C 51.3586,176.321 48.0252,176.821 44.5,177C 47.5,177.333 50.5,177.667 53.5,178C 43.3304,184.252 32.9971,190.252 22.5,196C 16.8974,197.227 11.2308,198.061 5.5,198.5C 5.02694,197.094 4.02694,196.427 2.5,196.5C 2.29142,195.078 1.79142,193.745 1,192.5C 0.500198,182.839 0.333531,173.172 0.5,163.5C 14.0477,155.718 27.7144,147.885 41.5,140C 42.435,137.619 42.7683,135.119 42.5,132.5C 37.6367,132.819 32.97,132.486 28.5,131.5 Z" />
  </g>
  <g>
    <path fill="#f6f6f6" d="M -0.5,193.5 C 0.271873,194.694 1.27187,195.694 2.5,196.5C 2.97306,197.906 3.97306,198.573 5.5,198.5C 5.5,198.833 5.5,199.167 5.5,199.5C 3.5,199.5 1.5,199.5 -0.5,199.5C -0.5,197.5 -0.5,195.5 -0.5,193.5 Z" />
  </g>
  <g>
    <path fill="#efefef" d="M 98.5,193.5 C 99.1667,193.833 99.8333,194.167 100.5,194.5C 100.833,196.833 102.167,198.167 104.5,198.5C 104.5,198.833 104.5,199.167 104.5,199.5C 100.833,199.5 97.1667,199.5 93.5,199.5C 93.5,199.167 93.5,198.833 93.5,198.5C 95.632,198.446 96.9653,197.446 97.5,195.5C 98.3382,195.158 98.6716,194.492 98.5,193.5 Z" />
  </g>
  <g>
    <path fill="#eeeeee" d="M 199.5,193.5 C 199.5,195.5 199.5,197.5 199.5,199.5C 197.833,199.5 196.167,199.5 194.5,199.5C 194.833,198.833 195.167,198.167 195.5,197.5C 197.274,196.63 198.607,195.297 199.5,193.5 Z" />
  </g>
  <g>
    <path fill="#3c4453" d="M 100.5,194.5 C 102.167,195.5 103.5,196.833 104.5,198.5C 102.167,198.167 100.833,196.833 100.5,194.5 Z" />
  </g>
  <g>
    <path fill="#333142" d="M 2.5,196.5 C 4.02694,196.427 5.02694,197.094 5.5,198.5C 3.97306,198.573 2.97306,197.906 2.5,196.5 Z" />
  </g>
  <g>
    <path fill="#45444a" d="M 97.5,195.5 C 96.9653,197.446 95.632,198.446 93.5,198.5C 94.4363,197.026 95.7697,196.026 97.5,195.5 Z" />
  </g>
  <g>
    <path fill="#072647" d="M 195.5,197.5 C 195.167,198.167 194.833,198.833 194.5,199.5C 164.5,199.5 134.5,199.5 104.5,199.5C 104.5,199.167 104.5,198.833 104.5,198.5C 134.877,198.818 165.21,198.485 195.5,197.5 Z" />
  </g>
</svg>