<?xml version="1.0" encoding="utf-8"?>
<svg version="1.2" viewBox="0 0 500 500" baseProfile="tiny-ps" xmlns="http://www.w3.org/2000/svg">
  <title>EighTwOne Logo</title>
  <path d="M0,0 L500,0 L500,500 L0,500 Z " transform="translate(0,0)" fill=" #FAFAFA" />
  <path d="M0,0 L154,0 L166,11 L168,13 L168,173 L165,178 L159,182 L155,184 L156,186 L166,191 L168,198 L168,353 L163,362 L157,367 L155,371 L-3,371 L-9,367 L-13,363 L-16,358 L-16,196 L-13,190 L-7,187 L-5,184 L-14,174 L-16,173 L-16,10 L-12,9 L-10,5 L-5,2 Z " transform="translate(265,62)" fill=" #332191" />
  <path d="M0,0 L173,0 L176,3 L178,8 L178,168 L172,176 L167,181 L159,182 L158,183 L6,183 L-3,173 L-5,170 L-5,7 L-1,1 Z " transform="translate(70,250)" fill=" #124F94" />
  <path d="M0,0 L158,0 L166,7 L168,11 L168,170 L163,178 L157,181 L-3,181 L-11,175 L-16,165 L-16,131 L-15,127 L-14,14 L-7,5 Z " transform="translate(78,64)" fill=" #2A7FFE" />
  <path d="M0,0 L16,0 L26,2 L37,8 L47,18 L51,24 L54,31 L56,41 L56,55 L53,69 L46,81 L35,92 L19,99 L-1,99 L-14,95 L-24,87 L-30,80 L-30,77 L-33,76 L-35,71 L-38,59 L-38,43 L-35,29 L-30,19 L-23,11 L-14,5 L-6,1 Z " transform="translate(147,291)" fill=" #F9F9FA" />
  <path d="M0,0 L56,0 L58,2 L58,13 L57,15 L18,16 L17,17 L17,38 L22,40 L54,41 L54,56 L17,57 L16,74 L17,81 L57,82 L59,83 L59,96 L-1,96 L-2,95 L-2,2 Z " transform="translate(125,106)" fill=" #F8F9F9" />
  <path d="M0,0 L11,0 L21,10 L26,14 L31,22 L39,29 L52,44 L58,52 L60,55 L59,60 L49,69 L46,70 L40,77 L29,84 L13,96 L-5,109 L-15,115 L-17,116 L-25,116 L-29,113 L-28,106 L-10,92 L0,85 L17,73 L24,68 L30,65 L35,60 L35,55 L26,45 L14,31 L5,20 L-4,10 L-5,5 L-3,1 Z " transform="translate(317,275)" fill=" #F9F9FA" />
  <path d="M0,0 L12,0 L20,5 L25,11 L28,19 L28,40 L25,48 L21,54 L16,58 L11,60 L-3,60 L-10,56 L-16,48 L-19,42 L-20,36 L-20,23 L-17,13 L-11,5 L-4,1 Z " transform="translate(151,310)" fill=" #124F94" />
  <path d="M0,0 L154,0 L166,11 L168,13 L168,173 L165,178 L159,182 L155,184 L156,186 L166,191 L168,198 L168,353 L163,362 L157,367 L155,371 L-3,371 L-9,367 L-13,363 L-16,358 L-16,196 L-13,190 L-7,187 L-5,184 L-14,174 L-16,173 L-16,10 L-12,9 L-10,5 L-5,2 Z M1,1 L0,3 L-8,6 L-10,10 L-14,12 L-14,172 L-5,181 L-4,183 L157,183 L158,180 L164,177 L165,172 L167,172 L167,16 L154,3 L151,1 Z M-4,186 L-8,190 L-12,192 L-14,196 L-14,357 L-9,365 L-7,367 L-2,369 L-1,370 L155,370 L157,365 L164,357 L167,352 L167,199 L165,197 L164,191 L156,188 L154,186 Z " transform="translate(265,62)" fill=" #869DC4" />
  <path d="M0,0 L68,0 L71,1 L71,11 L70,12 L45,13 L44,89 L30,89 L28,14 L26,13 L1,12 L0,11 Z " transform="translate(306,110)" fill=" #F5F7F8" />
  <path d="M0,0 L158,0 L166,7 L168,11 L168,170 L163,178 L157,181 L-3,181 L-11,175 L-16,165 L-16,131 L-15,127 L-14,14 L-7,5 Z M0,1 L-10,11 L-13,16 L-14,131 L-14,166 L-9,174 L-3,179 L157,179 L163,175 L166,170 L166,11 L159,3 L157,1 Z " transform="translate(78,64)" fill=" #85ABD5" />
  <path d="M0,0 L173,0 L176,3 L178,8 L178,168 L172,176 L167,181 L159,182 L158,183 L6,183 L-3,173 L-5,170 L-5,7 L-1,1 Z M1,1 L-1,3 L-3,8 L-4,9 L-4,169 L6,179 L8,182 L156,182 L158,180 L166,179 L173,171 L176,167 L176,8 L172,2 L171,1 Z " transform="translate(70,250)" fill=" #6F9EC8" />
  <path d="M0,0 L8,0 L18,9 L24,14 L30,22 L40,32 L49,43 L56,52 L58,56 L58,63 L47,73 L36,82 L18,95 L-1,109 L-17,120 L-29,120 L-35,116 L-34,109 L-25,100 L-7,87 L7,77 L19,69 L26,65 L29,61 L31,61 L28,56 L19,46 L10,35 L1,25 L-10,11 L-10,5 L-6,1 Z M-3,2 L-6,3 L-8,7 L-7,12 L4,24 L13,35 L26,50 L32,57 L32,62 L24,69 L15,74 L0,85 L-18,98 L-31,108 L-32,115 L-28,118 L-20,118 L-11,113 L3,103 L22,89 L35,80 L42,74 L43,72 L48,69 L57,61 L56,56 L50,47 L39,35 L32,27 L27,23 L21,14 L11,5 L8,2 Z " transform="translate(320,273)" fill=" #8698BF" />
  <path d="M0,0 L16,0 L26,2 L37,8 L47,18 L51,24 L54,31 L56,41 L56,55 L53,69 L46,81 L35,92 L19,99 L-1,99 L-14,95 L-24,87 L-30,80 L-30,77 L-33,76 L-35,71 L-38,59 L-38,43 L-35,29 L-30,19 L-23,11 L-14,5 L-6,1 Z M-1,2 L-13,7 L-25,16 L-31,26 L-34,34 L-36,46 L-36,56 L-34,68 L-28,79 L-17,90 L-8,94 L3,96 L16,96 L26,93 L34,89 L40,84 L47,74 L51,62 L52,57 L52,41 L48,25 L42,16 L32,7 L19,2 Z " transform="translate(147,291)" fill=" #80A4CA" />
  <path d="M0,0 L68,0 L72,2 L72,13 L69,16 L57,17 L47,17 L46,18 L45,30 L44,92 L42,93 L27,93 L26,92 L24,18 L-1,17 L-3,15 L-3,2 Z M-1,2 L-1,13 L0,14 L25,15 L27,16 L29,91 L43,91 L44,15 L69,14 L70,13 L70,3 L67,2 Z " transform="translate(307,108)" fill=" #8490BE" />
  <path d="M0,0 L59,0 L62,2 L62,15 L57,18 L21,19 L21,39 L27,38 L35,39 L55,40 L58,42 L58,55 L56,56 L56,42 L24,42 L19,40 L18,39 L18,18 L20,16 L59,16 L59,3 L58,2 L2,2 L1,3 L1,96 L61,97 L61,84 L19,83 L18,82 L17,75 L18,58 L20,57 L20,81 L50,82 L50,80 L57,80 L63,84 L63,97 L60,99 L16,99 L0,98 L-1,97 L-1,2 Z " transform="translate(123,105)" fill=" #8FB0D7" />
  <path d="M0,0 L42,0 L43,7 L38,14 L-1,14 L-5,9 L-4,4 Z " transform="translate(339,378)" fill=" #F5F7F8" />
  <path d="M0,0 L11,0 L21,5 L27,12 L31,22 L32,29 L32,37 L29,50 L23,60 L15,65 L9,67 L-2,67 L-11,62 L-18,54 L-22,43 L-22,22 L-16,10 L-8,3 Z M0,3 L-7,6 L-12,9 L-18,18 L-20,26 L-20,39 L-18,47 L-12,57 L-6,62 L-3,63 L11,63 L19,59 L24,53 L26,50 L28,43 L28,22 L24,12 L16,5 L12,3 Z " transform="translate(151,307)" fill=" #83A5CA" />
  <path d="M0,0 L38,0 L43,3 L44,10 L38,17 L-5,17 L-9,12 L-9,5 L-4,1 Z M-2,2 L-7,7 L-6,12 L-3,16 L36,16 L41,9 L40,2 Z " transform="translate(341,376)" fill=" #8293BC" />
</svg>