<?xml version="1.0" encoding="utf-8" standalone="no"?>
<svg baseProfile="tiny-ps" version="1.2" width="400" height="400" viewBox="0, 0, 400,400" xmlns:inkscape="http://www.inkscape.org/namespaces/inkscape" xmlns:sodipodi="http://sodipodi.sourceforge.net/DTD/sodipodi-0.dtd" xmlns:svg="http://www.w3.org/2000/svg">
  <title>EighTwOne</title>
  <g>
    <path id="path0" d="M212.563 51.400 C 212.079 52.138,211.556 52.400,210.563 52.400 C 209.570 52.400,209.047 52.662,208.563 53.400 C 208.086 54.128,207.554 54.400,206.603 54.400 C 205.030 54.400,204.508 54.951,204.333 56.802 C 204.212 58.077,204.077 58.212,202.802 58.333 C 202.032 58.406,201.177 58.653,200.902 58.882 C 200.503 59.212,200.400 72.394,200.400 122.879 L 200.400 186.460 204.970 191.030 L 209.540 195.600 273.050 195.600 L 336.559 195.600 338.437 193.600 C 339.855 192.089,340.599 191.600,341.477 191.600 C 342.981 191.600,343.600 190.948,343.600 189.366 C 343.600 188.447,343.880 187.909,344.604 187.434 L 345.607 186.777 345.504 124.595 L 345.400 62.414 341.000 57.965 C 338.580 55.519,335.729 52.816,334.664 51.958 L 332.728 50.400 272.973 50.400 L 213.218 50.400 212.563 51.400 M300.969 86.961 C 302.904 87.770,303.226 88.839,302.936 93.498 C 302.631 98.404,302.460 98.614,298.487 98.964 C 296.789 99.114,294.851 99.432,294.180 99.670 C 293.204 100.016,292.702 99.970,291.673 99.438 C 289.864 98.502,283.409 98.930,282.155 100.069 C 281.187 100.948,280.853 115.232,281.150 143.000 C 281.301 157.130,281.093 159.601,279.683 160.356 C 278.562 160.956,268.750 161.048,267.700 160.469 C 266.601 159.862,266.753 161.912,266.574 145.285 C 266.483 136.755,266.248 130.521,265.981 129.531 C 265.688 128.441,265.583 123.389,265.669 114.446 C 265.740 107.051,265.653 100.775,265.476 100.500 C 265.232 100.122,262.715 100.000,255.157 100.000 L 245.162 100.000 244.181 98.942 C 243.040 97.710,243.055 97.809,243.182 92.600 C 243.287 88.298,243.858 86.991,245.750 86.721 C 249.388 86.202,299.675 86.421,300.969 86.961 M115.200 100.400 C 115.200 101.060,115.256 101.600,115.325 101.600 C 115.393 101.600,115.849 101.060,116.337 100.400 L 117.224 99.200 116.212 99.200 C 115.354 99.200,115.200 99.383,115.200 100.400 M115.200 114.176 C 115.200 115.099,115.897 115.290,118.118 114.975 L 120.200 114.679 118.000 114.157 C 115.198 113.491,115.200 113.491,115.200 114.176 M114.971 146.132 C 114.603 147.089,114.944 148.200,115.605 148.200 C 116.422 148.200,116.578 146.646,115.824 146.020 C 115.318 145.600,115.167 145.620,114.971 146.132 M150.420 152.763 C 149.953 153.636,149.855 155.722,150.263 156.130 C 150.821 156.688,151.600 155.432,151.600 153.975 C 151.600 152.211,151.029 151.624,150.420 152.763 M57.063 189.870 C 56.516 190.418,56.831 191.200,57.600 191.200 C 58.040 191.200,58.400 191.042,58.400 190.849 C 58.400 190.324,57.366 189.567,57.063 189.870 M207.220 200.394 C 205.819 201.943,205.138 202.387,204.020 202.481 C 202.692 202.592,202.592 202.697,202.475 204.107 C 202.387 205.178,202.069 205.799,201.375 206.253 L 200.400 206.892 200.400 271.000 L 200.400 335.108 201.400 335.763 C 202.096 336.219,202.400 336.780,202.400 337.609 C 202.400 339.319,206.681 343.600,208.391 343.600 C 209.220 343.600,209.781 343.904,210.238 344.601 L 210.894 345.603 273.147 345.501 L 335.400 345.400 335.618 343.227 C 335.738 342.032,336.030 340.990,336.268 340.911 C 338.578 340.141,343.600 335.149,343.600 333.623 C 343.600 332.780,343.900 332.222,344.600 331.763 L 345.600 331.108 345.600 270.000 L 345.600 208.892 344.619 208.249 C 343.778 207.698,343.621 207.250,343.519 205.103 L 343.400 202.600 341.893 202.475 C 340.822 202.387,340.201 202.069,339.747 201.375 C 339.279 200.662,338.747 200.400,337.763 200.400 C 336.770 200.400,336.247 200.138,335.763 199.400 L 335.108 198.400 272.054 198.413 L 209.000 198.426 207.220 200.394 M56.100 202.300 C 55.385 203.110,54.800 204.185,54.800 204.689 C 54.800 205.193,54.350 205.997,53.800 206.475 L 52.800 207.344 52.800 271.026 L 52.800 334.708 53.800 335.363 C 54.350 335.724,54.800 336.175,54.800 336.366 C 54.800 336.557,55.745 337.697,56.900 338.900 C 58.055 340.103,59.878 342.012,60.951 343.143 L 62.902 345.200 121.828 345.200 L 180.755 345.200 181.381 344.306 C 181.911 343.549,182.499 343.376,185.219 343.176 L 188.431 342.940 191.562 339.689 C 193.577 337.597,194.779 336.003,194.937 335.215 C 195.093 334.437,195.550 333.824,196.191 333.531 L 197.200 333.072 197.200 270.282 L 197.200 207.492 196.200 206.565 C 195.596 206.005,195.198 205.195,195.196 204.519 C 195.193 203.779,194.738 202.959,193.853 202.100 L 192.515 200.800 124.957 200.814 L 57.400 200.827 56.100 202.300 M262.555 218.995 C 263.488 219.542,265.839 221.655,267.779 223.691 C 269.718 225.728,271.808 227.575,272.422 227.797 C 273.749 228.276,276.400 231.360,276.400 232.425 C 276.400 233.108,278.504 235.416,282.632 239.260 C 285.777 242.190,291.810 248.931,292.200 249.952 C 292.420 250.528,294.355 252.800,296.499 255.000 C 299.401 257.977,300.399 259.266,300.399 260.038 C 300.400 260.609,300.761 261.402,301.202 261.802 C 302.277 262.775,302.917 265.325,302.582 267.306 C 302.280 269.092,301.493 269.972,297.800 272.650 C 294.535 275.019,293.200 276.155,290.074 279.232 C 288.603 280.679,286.410 282.472,285.200 283.215 C 283.990 283.958,282.092 285.329,280.982 286.262 C 279.871 287.195,278.521 288.148,277.982 288.380 C 277.442 288.613,276.190 289.430,275.200 290.196 C 274.210 290.961,272.230 292.401,270.800 293.395 C 269.370 294.390,266.730 296.327,264.933 297.701 C 263.136 299.076,261.013 300.650,260.215 301.200 C 259.417 301.750,257.588 303.145,256.149 304.300 C 254.711 305.455,253.335 306.400,253.093 306.400 C 252.850 306.400,252.280 306.736,251.826 307.148 C 251.372 307.559,248.930 309.314,246.400 311.048 L 241.800 314.200 237.707 314.336 C 228.319 314.649,225.020 308.771,231.404 303.104 C 234.506 300.350,239.119 296.687,240.200 296.117 C 240.860 295.770,241.777 295.106,242.237 294.643 C 242.698 294.179,244.366 292.900,245.943 291.800 C 247.521 290.700,250.068 288.855,251.604 287.700 C 253.140 286.545,254.497 285.600,254.619 285.600 C 254.805 285.600,259.858 281.977,263.600 279.161 C 264.150 278.747,265.590 277.740,266.800 276.925 C 268.010 276.109,269.509 275.027,270.131 274.521 C 270.753 274.014,271.763 273.600,272.376 273.600 C 273.012 273.600,274.138 273.085,275.000 272.400 C 275.831 271.740,276.632 271.200,276.781 271.200 C 276.930 271.200,277.348 270.578,277.711 269.818 C 278.073 269.058,278.917 268.153,279.585 267.808 C 281.311 266.915,281.218 265.435,279.300 263.274 C 278.475 262.344,277.209 260.901,276.487 260.066 C 275.764 259.232,274.573 257.930,273.839 257.174 C 272.618 255.916,268.794 251.392,266.671 248.693 C 265.378 247.050,262.343 243.576,261.187 242.416 C 260.275 241.501,256.414 236.974,254.352 234.400 C 253.017 232.735,249.863 229.162,248.800 228.111 C 247.313 226.641,247.397 223.938,248.998 221.800 C 250.547 219.730,250.526 219.742,252.966 219.456 C 254.111 219.321,255.757 218.951,256.624 218.634 C 258.962 217.777,260.653 217.880,262.555 218.995 M129.892 232.831 C 133.710 233.153,135.505 233.495,137.000 234.185 C 138.100 234.693,139.540 235.232,140.200 235.384 C 140.860 235.535,141.760 235.982,142.200 236.377 C 142.640 236.772,143.531 237.221,144.181 237.375 C 146.052 237.820,152.875 244.512,155.217 248.200 C 156.055 249.520,157.086 251.050,157.507 251.600 C 157.929 252.150,158.390 253.200,158.533 253.932 C 158.676 254.665,159.155 255.725,159.596 256.286 C 160.075 256.895,160.400 257.911,160.400 258.802 C 160.400 259.624,160.771 261.444,161.224 262.848 C 162.325 266.258,162.435 276.595,161.397 279.049 C 161.036 279.902,160.596 282.002,160.419 283.715 C 160.229 285.557,159.845 287.109,159.480 287.515 C 159.140 287.892,158.735 288.740,158.580 289.400 C 158.294 290.615,155.907 294.563,155.190 295.006 C 154.976 295.139,154.800 295.593,154.800 296.017 C 154.800 297.734,146.230 306.026,143.834 306.627 C 143.230 306.779,142.641 307.148,142.526 307.448 C 142.411 307.747,141.571 308.208,140.659 308.472 C 139.746 308.736,138.571 309.277,138.046 309.676 C 137.521 310.074,136.757 310.400,136.348 310.400 C 135.938 310.400,134.477 310.795,133.102 311.278 C 129.843 312.421,120.093 312.543,117.282 311.475 C 116.337 311.116,114.627 310.710,113.482 310.573 C 112.337 310.435,110.930 309.993,110.355 309.590 C 109.780 309.187,108.666 308.736,107.881 308.589 C 107.095 308.441,106.143 307.979,105.764 307.560 C 105.386 307.142,104.912 306.800,104.711 306.800 C 103.728 306.800,95.963 299.823,95.090 298.156 C 94.700 297.410,94.209 296.800,93.998 296.800 C 93.788 296.800,93.501 296.345,93.362 295.789 C 93.222 295.234,92.776 294.601,92.371 294.385 C 91.966 294.168,91.511 293.333,91.360 292.529 C 91.210 291.725,90.662 290.442,90.143 289.678 C 89.606 288.887,89.200 287.698,89.200 286.918 C 89.200 286.165,88.795 284.615,88.300 283.474 C 87.045 280.583,86.928 265.096,88.144 262.846 C 88.547 262.102,89.028 260.418,89.213 259.105 C 89.399 257.792,89.848 256.389,90.212 255.987 C 90.575 255.586,91.044 254.490,91.255 253.553 C 91.466 252.616,91.989 251.603,92.419 251.302 C 92.849 251.001,93.200 250.419,93.200 250.008 C 93.200 249.597,93.650 248.727,94.200 248.073 C 94.750 247.419,95.200 246.759,95.200 246.605 C 95.200 246.146,100.290 241.200,100.763 241.200 C 101.003 241.200,101.200 241.025,101.200 240.811 C 101.200 240.421,105.894 237.200,106.462 237.200 C 106.628 237.200,107.428 236.750,108.238 236.200 C 109.049 235.650,110.064 235.200,110.494 235.200 C 110.924 235.200,111.797 234.829,112.433 234.376 C 113.262 233.786,114.810 233.405,117.895 233.031 C 123.623 232.338,123.980 232.332,129.892 232.831 M120.800 248.374 C 110.368 250.534,104.949 258.704,105.099 272.046 C 105.295 289.634,114.758 298.895,129.369 295.799 C 142.026 293.118,148.002 271.877,140.362 256.727 C 139.263 254.548,135.593 250.400,134.765 250.400 C 134.546 250.400,133.880 250.045,133.284 249.610 C 132.422 248.982,125.523 247.450,124.400 247.636 C 124.290 247.655,122.670 247.987,120.800 248.374 M299.132 301.191 C 306.207 301.654,305.723 301.480,307.008 304.015 C 308.542 307.042,308.157 308.335,304.528 312.350 L 302.855 314.200 291.928 314.494 C 270.977 315.057,269.907 314.967,267.445 312.446 C 263.567 308.475,266.112 301.629,271.480 301.592 C 272.096 301.588,273.500 301.348,274.600 301.058 C 276.883 300.458,288.921 300.523,299.132 301.191 " stroke="none" fill="#124f94" fill-rule="evenodd" />
    <path id="path1" d="M0.000 200.000 L 0.000 400.000 200.000 400.000 L 400.000 400.000 400.000 200.000 L 400.000 0.000 200.000 0.000 L 0.000 0.000 0.000 200.000 M337.510 52.082 C 338.990 53.447,341.595 56.010,343.300 57.777 L 346.400 60.990 346.400 124.446 L 346.400 187.902 345.551 188.466 C 345.034 188.810,344.601 189.647,344.445 190.609 C 344.209 192.060,344.067 192.208,342.693 192.431 C 341.592 192.610,340.711 193.191,339.344 194.637 L 337.490 196.600 273.045 196.600 L 208.600 196.600 204.000 192.000 L 199.400 187.400 199.306 125.800 C 199.255 91.920,199.345 62.763,199.506 61.006 L 199.800 57.812 201.304 57.568 C 203.164 57.267,203.267 57.164,203.568 55.310 C 203.792 53.933,203.939 53.791,205.391 53.555 C 206.353 53.399,207.190 52.966,207.534 52.449 C 207.897 51.903,208.519 51.600,209.279 51.600 C 210.037 51.600,210.773 51.244,211.330 50.607 L 212.200 49.614 273.510 49.607 L 334.820 49.600 337.510 52.082 M188.800 51.902 C 191.386 53.199,193.474 55.196,194.976 57.809 L 196.552 60.551 196.706 121.976 C 196.864 185.114,196.830 187.170,195.627 188.373 C 195.238 188.762,194.732 189.620,194.502 190.280 C 193.946 191.873,191.304 194.400,190.193 194.400 C 189.706 194.400,188.832 194.774,188.251 195.231 L 187.194 196.062 124.097 196.098 L 61.000 196.133 59.491 195.166 C 58.661 194.635,57.411 193.840,56.715 193.400 C 54.823 192.206,52.115 188.667,51.437 186.506 C 51.109 185.458,50.549 183.799,50.194 182.820 C 49.203 180.086,49.465 156.853,50.500 155.710 C 51.347 154.775,51.384 153.277,50.587 152.224 C 49.804 151.188,49.821 146.870,50.613 145.824 C 51.120 145.153,51.200 139.634,51.200 105.343 C 51.200 63.535,51.230 62.799,53.039 60.347 C 55.010 57.676,60.001 52.883,61.682 52.048 L 63.400 51.194 125.600 51.297 C 174.499 51.378,188.014 51.507,188.800 51.902 M99.682 85.400 L 98.753 86.200 98.512 123.688 C 98.306 155.744,98.353 161.206,98.836 161.383 C 100.070 161.837,145.391 162.253,146.400 161.820 C 147.378 161.400,147.402 161.287,147.501 156.595 C 147.640 149.929,149.597 150.636,130.315 150.385 C 121.232 150.266,113.760 150.131,113.710 150.085 C 112.004 148.473,112.207 131.447,113.955 129.563 L 115.000 128.436 128.715 128.883 C 139.397 129.231,142.538 129.222,142.915 128.846 C 143.951 127.813,143.949 118.761,142.913 117.600 C 142.815 117.490,136.468 117.310,128.809 117.200 C 111.302 116.949,113.200 118.193,113.200 106.967 L 113.200 98.458 114.246 97.635 C 115.272 96.829,115.577 96.817,130.212 97.051 L 145.133 97.289 145.712 96.145 C 146.725 94.142,146.891 87.423,145.956 86.235 C 144.860 84.841,144.448 84.816,121.206 84.701 C 101.112 84.602,100.589 84.619,99.682 85.400 M245.583 89.134 C 244.578 89.947,244.083 93.183,244.567 95.767 C 244.938 97.743,246.141 97.978,254.501 97.708 C 263.029 97.433,265.815 97.724,266.963 99.012 C 267.788 99.938,267.806 100.361,268.200 129.675 L 268.600 159.400 273.459 159.512 C 280.378 159.671,279.600 163.568,279.600 128.771 C 279.600 99.733,279.614 99.186,280.400 98.400 C 281.156 97.644,281.733 97.600,290.920 97.600 C 297.947 97.600,300.773 97.467,301.120 97.120 C 301.622 96.618,301.810 90.212,301.357 89.033 C 300.954 87.981,246.885 88.079,245.583 89.134 M336.119 198.141 C 336.604 198.659,337.673 199.207,338.495 199.358 C 339.317 199.510,340.166 199.963,340.381 200.364 C 340.613 200.797,341.431 201.199,342.398 201.353 C 344.267 201.652,344.800 202.545,344.800 205.377 C 344.800 206.723,344.998 207.234,345.700 207.700 L 346.600 208.298 346.704 269.763 L 346.808 331.229 345.804 332.233 C 345.252 332.785,344.800 333.649,344.800 334.154 C 344.800 335.801,340.184 341.388,338.100 342.264 C 337.074 342.696,336.800 343.046,336.800 343.929 C 336.800 346.865,343.117 346.600,273.009 346.600 L 210.354 346.600 209.677 345.751 C 209.305 345.285,208.421 344.795,207.713 344.664 C 205.964 344.339,201.668 340.051,201.324 338.288 C 201.186 337.579,200.652 336.604,200.137 336.119 L 199.200 335.238 199.200 271.019 L 199.200 206.800 200.100 205.906 C 200.595 205.414,201.180 204.289,201.400 203.406 C 201.757 201.972,201.973 201.757,203.415 201.400 C 204.485 201.135,205.669 200.359,206.926 199.100 L 208.821 197.200 272.030 197.200 L 335.238 197.200 336.119 198.141 M194.883 201.081 C 195.926 202.100,196.400 202.913,196.400 203.684 C 196.400 204.382,196.778 205.134,197.400 205.675 L 198.400 206.544 198.400 270.226 L 198.400 333.908 197.400 334.563 C 196.756 334.985,196.400 335.590,196.400 336.263 C 196.400 337.045,195.500 338.208,192.825 340.883 L 189.250 344.458 186.236 344.686 C 184.011 344.854,183.045 345.109,182.548 345.657 C 181.899 346.375,179.827 346.400,121.549 346.400 L 61.221 346.400 59.411 344.589 C 58.415 343.594,57.600 342.618,57.600 342.422 C 57.600 342.226,56.863 341.298,55.962 340.360 C 55.061 339.422,54.029 338.193,53.669 337.628 C 53.309 337.062,52.696 336.365,52.307 336.077 C 51.636 335.581,51.600 332.261,51.600 271.047 L 51.600 206.539 52.600 205.600 C 53.150 205.083,53.600 204.223,53.600 203.689 C 53.600 203.108,54.203 202.097,55.100 201.172 L 56.600 199.627 124.983 199.613 L 193.366 199.600 194.883 201.081 M255.027 220.418 C 251.609 220.803,251.378 220.943,249.999 223.469 L 249.088 225.138 250.122 226.869 C 250.691 227.821,251.837 229.320,252.669 230.200 C 254.389 232.021,258.960 237.341,269.577 249.885 C 273.635 254.678,277.415 259.062,277.977 259.627 C 282.869 264.541,283.737 266.497,281.746 268.112 C 281.144 268.600,279.469 270.194,278.025 271.654 C 276.114 273.585,275.019 274.376,274.000 274.560 C 273.230 274.698,271.766 275.394,270.746 276.106 C 269.727 276.818,267.747 278.192,266.346 279.161 C 264.946 280.129,263.260 281.343,262.600 281.857 C 261.940 282.372,261.040 283.062,260.600 283.390 C 260.160 283.719,259.100 284.530,258.245 285.194 C 257.390 285.857,256.559 286.400,256.400 286.400 C 256.141 286.400,253.925 288.004,252.445 289.262 C 252.140 289.522,250.790 290.464,249.445 291.356 C 245.447 294.008,235.369 301.638,232.546 304.149 C 229.573 306.793,229.176 310.734,231.795 311.598 C 232.533 311.842,233.352 312.302,233.617 312.620 C 234.508 313.694,239.067 313.384,241.400 312.091 C 245.103 310.039,246.088 309.406,248.148 307.761 C 249.277 306.859,250.830 305.799,251.600 305.405 C 252.370 305.011,253.090 304.573,253.200 304.433 C 253.401 304.176,258.651 300.277,260.266 299.185 C 260.742 298.863,262.535 297.520,264.250 296.200 C 265.965 294.880,267.825 293.495,268.384 293.122 C 268.943 292.749,270.660 291.536,272.200 290.426 C 273.740 289.316,275.990 287.737,277.200 286.916 C 278.410 286.096,280.520 284.564,281.889 283.512 C 283.257 282.460,284.538 281.600,284.735 281.600 C 285.485 281.600,289.164 278.254,289.617 277.159 C 289.938 276.384,290.520 275.894,291.413 275.647 C 292.140 275.447,293.528 274.499,294.498 273.541 C 295.468 272.584,297.211 271.081,298.371 270.202 C 301.509 267.825,302.422 265.113,300.596 263.597 C 300.292 263.345,299.764 262.297,299.423 261.269 C 298.832 259.491,297.735 258.093,293.183 253.321 C 292.092 252.177,291.200 251.095,291.200 250.916 C 291.200 250.738,290.515 249.874,289.678 248.996 C 288.840 248.118,286.985 246.046,285.555 244.391 C 282.047 240.331,280.079 238.400,279.449 238.400 C 278.782 238.400,275.600 234.651,275.600 233.865 C 275.600 232.997,272.143 228.899,271.143 228.582 C 270.671 228.432,268.556 226.520,266.443 224.333 L 262.600 220.355 260.400 220.208 C 259.190 220.128,256.772 220.222,255.027 220.418 M117.000 234.756 C 116.340 234.927,115.224 235.366,114.520 235.733 C 113.816 236.100,112.762 236.400,112.178 236.400 C 111.593 236.400,110.581 236.850,109.927 237.400 C 109.273 237.950,108.335 238.400,107.841 238.400 C 107.348 238.400,106.574 238.805,106.121 239.300 C 105.668 239.795,104.365 240.740,103.225 241.400 C 100.687 242.869,97.027 246.354,96.182 248.105 C 95.500 249.518,94.637 251.034,93.280 253.200 C 92.798 253.970,92.402 255.081,92.401 255.669 C 92.401 256.257,91.976 257.247,91.457 257.869 C 90.689 258.791,90.471 259.629,90.279 262.400 C 90.149 264.270,89.673 266.941,89.221 268.336 C 88.067 271.900,88.128 275.820,89.393 279.400 C 90.007 281.135,90.386 283.091,90.392 284.542 C 90.398 286.450,90.586 287.105,91.400 288.073 C 91.950 288.727,92.400 289.663,92.400 290.153 C 92.400 290.643,92.850 291.655,93.400 292.400 C 93.950 293.145,94.400 294.011,94.400 294.324 C 94.400 294.636,94.849 295.366,95.399 295.946 C 95.948 296.526,96.988 297.630,97.709 298.400 C 100.313 301.178,105.343 305.600,105.898 305.600 C 106.211 305.600,107.666 306.119,109.133 306.753 C 115.913 309.683,128.134 310.406,135.000 308.282 C 147.231 304.499,155.143 295.705,158.284 282.400 C 160.725 272.062,159.023 257.479,154.616 250.986 C 154.057 250.162,153.600 249.304,153.600 249.078 C 153.600 248.009,143.520 238.426,142.378 238.409 C 142.035 238.404,141.145 237.950,140.400 237.400 C 139.655 236.850,138.532 236.400,137.906 236.400 C 137.280 236.400,136.010 235.999,135.084 235.508 C 133.293 234.559,119.913 234.003,117.000 234.756 M129.708 246.503 C 130.244 246.854,131.364 247.270,132.196 247.426 C 146.159 250.045,150.891 278.185,139.702 292.063 C 134.427 298.607,122.170 301.298,116.349 297.190 C 115.771 296.782,114.749 296.302,114.078 296.124 C 112.909 295.813,109.610 292.465,108.093 290.049 C 107.731 289.472,107.022 288.491,106.517 287.869 C 106.013 287.247,105.600 286.346,105.600 285.866 C 105.600 285.386,105.139 284.129,104.577 283.071 C 103.098 280.294,102.873 264.279,104.279 261.983 C 104.745 261.222,105.331 259.831,105.581 258.892 C 106.722 254.600,112.982 248.500,117.400 247.375 C 118.500 247.095,120.120 246.578,121.000 246.226 C 123.052 245.406,128.288 245.573,129.708 246.503 M271.824 302.694 C 271.132 302.796,269.858 303.626,268.724 304.712 C 266.096 307.231,266.102 308.385,268.757 311.272 L 270.713 313.400 286.044 313.308 L 301.375 313.216 303.588 311.003 C 306.733 307.857,306.800 303.169,303.706 302.658 C 302.046 302.383,273.705 302.416,271.824 302.694 " stroke="none" fill="#fbfbfb" fill-rule="evenodd" />
    <path id="path2" d="M62.600 52.377 C 60.529 53.236,54.827 59.257,53.418 62.073 L 52.000 64.907 52.000 105.205 C 52.000 140.120,51.920 145.694,51.400 146.938 C 50.645 148.745,50.651 150.769,51.413 151.776 C 52.211 152.831,52.153 155.206,51.300 156.411 C 50.161 158.021,50.011 179.976,51.123 182.463 C 51.550 183.418,52.017 184.860,52.162 185.667 C 52.578 187.994,57.422 193.600,59.016 193.600 C 59.158 193.600,59.731 193.960,60.291 194.400 C 61.298 195.192,61.914 195.200,123.324 195.200 L 185.340 195.200 188.222 194.205 C 191.418 193.102,193.412 191.522,193.830 189.761 C 193.981 189.122,194.486 188.180,194.952 187.668 L 195.800 186.735 195.800 124.034 L 195.800 61.334 194.643 59.167 C 193.164 56.396,192.305 55.457,189.608 53.660 L 187.416 52.200 125.408 52.123 C 91.304 52.080,63.040 52.195,62.600 52.377 M124.850 84.000 L 145.187 84.000 146.494 85.168 L 147.800 86.336 147.670 90.850 C 147.448 98.560,148.813 98.000,130.251 98.000 C 118.891 98.000,114.837 98.123,114.480 98.480 C 113.802 99.158,113.802 114.842,114.480 115.520 C 114.834 115.874,118.448 116.000,128.254 116.000 C 142.554 116.000,143.209 116.084,144.223 118.044 C 145.166 119.867,144.920 127.347,143.865 128.958 L 143.137 130.069 128.969 129.954 C 120.368 129.884,114.657 129.988,114.435 130.219 C 113.918 130.758,113.695 148.656,114.200 149.149 C 114.443 149.386,121.030 149.591,130.932 149.670 C 150.321 149.824,148.400 149.122,148.400 156.058 C 148.400 164.044,149.729 163.535,130.000 163.114 C 121.310 162.929,110.756 162.732,106.546 162.676 C 100.518 162.596,98.742 162.450,98.182 161.987 C 97.463 161.393,97.512 86.938,98.232 85.060 C 98.578 84.160,100.637 83.593,102.756 83.816 C 103.722 83.917,113.664 84.000,124.850 84.000 M116.454 98.923 C 117.049 99.376,117.025 99.525,116.175 100.591 L 115.241 101.761 114.804 100.612 C 114.069 98.677,114.948 97.777,116.454 98.923 M117.996 114.146 L 120.192 114.659 117.679 115.063 C 115.141 115.472,114.532 115.275,114.952 114.181 C 115.216 113.492,115.194 113.493,117.996 114.146 M116.400 147.286 C 116.400 147.738,116.741 148.164,117.200 148.284 C 118.656 148.665,118.030 149.248,116.300 149.123 C 114.462 148.990,113.719 147.503,114.824 146.171 C 115.433 145.438,116.400 146.122,116.400 147.286 M144.973 148.757 C 145.094 148.953,144.520 149.197,143.697 149.299 C 141.644 149.553,137.572 149.169,137.834 148.745 C 138.117 148.288,144.690 148.298,144.973 148.757 M150.567 152.454 C 151.076 151.630,151.600 152.401,151.600 153.975 C 151.600 155.432,150.821 156.688,150.263 156.130 C 150.118 155.985,150.000 156.872,150.000 158.101 C 150.000 160.566,149.705 161.712,149.158 161.374 C 148.757 161.126,148.661 153.226,149.047 152.221 C 149.272 151.634,149.339 151.637,149.786 152.249 C 150.137 152.728,150.361 152.787,150.567 152.454 M58.036 191.356 C 57.494 192.010,56.400 191.797,56.400 191.037 C 56.400 190.775,56.617 190.343,56.883 190.077 C 57.634 189.326,58.721 190.531,58.036 191.356 M55.600 201.600 C 54.473 202.727,54.000 203.541,54.000 204.354 C 54.000 205.144,53.684 205.715,53.000 206.163 L 52.000 206.818 52.000 270.795 L 52.000 334.772 53.100 335.968 C 53.705 336.625,55.010 338.107,56.000 339.261 C 56.990 340.415,58.806 342.403,60.036 343.679 L 62.272 346.000 121.666 346.000 L 181.061 346.000 182.000 345.000 C 182.838 344.108,183.259 344.000,185.902 344.000 L 188.864 344.000 192.204 340.585 C 194.402 338.336,195.638 336.736,195.821 335.903 C 195.974 335.207,196.527 334.301,197.050 333.889 L 198.000 333.142 198.000 270.152 L 198.000 207.162 197.000 206.235 C 196.400 205.679,196.000 204.868,196.000 204.207 C 196.000 203.461,195.499 202.605,194.447 201.553 L 192.894 200.000 125.047 200.000 L 57.200 200.000 55.600 201.600 M194.031 201.969 C 194.729 202.667,195.200 203.561,195.200 204.187 C 195.200 204.773,195.642 205.678,196.200 206.236 L 197.200 207.236 197.200 270.058 L 197.200 332.879 196.000 334.000 C 195.340 334.617,194.800 335.464,194.800 335.883 C 194.800 336.303,193.372 338.121,191.627 339.923 L 188.454 343.200 185.608 343.200 C 183.086 343.200,182.656 343.314,181.835 344.200 L 180.908 345.200 121.700 345.200 L 62.491 345.200 58.546 340.935 C 56.376 338.590,54.195 336.241,53.700 335.717 L 52.800 334.764 52.800 270.928 L 52.800 207.092 53.800 206.165 C 54.350 205.655,54.800 204.791,54.800 204.244 C 54.800 203.698,55.295 202.720,55.900 202.073 L 57.000 200.895 124.931 200.847 L 192.862 200.800 194.031 201.969 M116.770 233.541 C 115.076 233.708,113.892 234.049,113.442 234.500 C 113.057 234.885,112.351 235.201,111.871 235.201 C 110.870 235.203,106.194 237.475,104.580 238.744 C 103.982 239.215,103.298 239.600,103.060 239.600 C 102.823 239.600,102.262 239.955,101.814 240.388 C 101.366 240.821,99.887 242.216,98.526 243.488 C 96.077 245.777,93.621 248.963,93.607 249.869 C 93.603 250.127,93.173 250.847,92.652 251.469 C 92.130 252.091,91.568 253.223,91.402 253.984 C 91.235 254.746,90.758 255.830,90.342 256.393 C 89.925 256.957,89.480 258.404,89.352 259.609 C 89.225 260.814,88.754 262.790,88.307 264.000 C 87.138 267.162,87.046 279.358,88.173 281.800 C 88.579 282.680,89.049 284.458,89.218 285.751 C 89.387 287.044,89.879 288.581,90.312 289.167 C 90.745 289.752,91.235 290.854,91.402 291.616 C 91.568 292.377,92.085 293.492,92.552 294.093 C 93.018 294.695,93.802 295.709,94.292 296.348 C 94.783 296.986,95.360 297.970,95.575 298.533 C 95.789 299.097,96.467 299.877,97.082 300.268 C 97.697 300.658,99.460 302.115,101.000 303.505 C 103.690 305.934,107.435 308.386,108.494 308.413 C 108.772 308.419,109.900 308.868,111.000 309.409 C 112.100 309.950,113.641 310.394,114.425 310.396 C 115.208 310.398,117.278 310.780,119.025 311.244 C 124.020 312.572,135.636 311.439,138.000 309.393 C 138.330 309.108,139.336 308.678,140.236 308.439 C 141.137 308.199,142.199 307.643,142.598 307.202 C 142.998 306.761,143.641 306.400,144.028 306.400 C 145.389 306.400,153.688 298.445,154.597 296.269 C 154.903 295.536,155.434 294.704,155.777 294.419 C 156.120 294.135,156.400 293.725,156.400 293.509 C 156.400 293.292,156.850 292.581,157.400 291.927 C 157.950 291.273,158.400 290.327,158.400 289.823 C 158.400 289.320,158.782 288.423,159.248 287.830 C 159.856 287.056,160.148 285.996,160.279 284.076 C 160.380 282.604,160.817 280.536,161.250 279.481 C 162.331 276.851,162.421 266.347,161.386 263.586 C 161.019 262.604,160.578 260.665,160.408 259.278 C 160.199 257.572,159.824 256.465,159.249 255.853 C 158.782 255.355,158.400 254.478,158.400 253.903 C 158.400 253.328,158.085 252.548,157.700 252.171 C 157.315 251.793,156.730 250.993,156.400 250.392 C 156.070 249.792,155.463 248.693,155.050 247.950 C 153.870 245.824,145.639 238.073,144.009 237.552 C 143.234 237.304,142.240 236.778,141.800 236.383 C 141.360 235.988,140.280 235.538,139.400 235.384 C 138.520 235.229,137.172 234.724,136.405 234.260 C 134.910 233.357,123.041 232.922,116.770 233.541 M132.200 233.996 C 133.740 234.200,135.713 234.734,136.585 235.183 C 137.456 235.633,138.557 236.000,139.031 236.000 C 139.504 236.000,140.336 236.349,140.878 236.775 C 141.420 237.202,142.349 237.672,142.942 237.821 C 144.787 238.284,153.073 246.186,154.246 248.600 C 154.566 249.260,155.335 250.618,155.954 251.617 C 161.683 260.867,161.878 280.759,156.341 291.200 C 152.388 298.656,149.189 302.062,141.989 306.481 C 132.473 312.323,110.320 311.487,103.744 305.039 C 103.273 304.578,101.833 303.300,100.544 302.200 C 95.943 298.274,92.605 293.842,91.832 290.632 C 91.677 289.989,91.226 289.050,90.828 288.545 C 90.428 288.036,89.987 286.572,89.838 285.257 C 89.691 283.954,89.217 281.882,88.785 280.654 C 87.684 277.521,87.686 270.150,88.789 265.938 C 89.223 264.281,89.699 261.862,89.847 260.562 C 89.994 259.263,90.442 257.732,90.842 257.160 C 91.242 256.588,91.741 255.356,91.951 254.422 C 92.160 253.488,92.673 252.336,93.090 251.862 C 93.506 251.388,94.071 250.550,94.344 250.000 C 95.600 247.474,96.350 246.436,98.400 244.393 C 99.610 243.187,101.500 241.629,102.600 240.932 C 103.700 240.235,105.065 239.301,105.634 238.856 C 106.203 238.412,107.140 237.930,107.718 237.785 C 108.295 237.640,108.976 237.270,109.232 236.962 C 109.487 236.654,110.597 236.135,111.699 235.808 C 112.801 235.480,113.945 235.012,114.241 234.766 C 115.412 233.794,126.944 233.299,132.200 233.996 M121.400 247.048 C 120.520 247.373,118.982 247.818,117.983 248.035 C 115.246 248.631,108.000 254.205,108.000 255.715 C 108.000 255.914,107.659 256.556,107.241 257.142 C 106.824 257.728,106.269 258.999,106.009 259.968 C 105.748 260.936,105.234 262.186,104.867 262.746 C 103.858 264.288,103.872 280.136,104.885 281.681 C 105.262 282.255,105.785 283.597,106.048 284.663 C 106.312 285.728,106.903 287.081,107.363 287.669 C 107.824 288.258,108.719 289.459,109.354 290.339 C 117.042 301.001,132.738 300.537,140.385 289.421 C 145.571 281.884,146.339 266.493,141.985 257.369 C 140.125 253.472,134.235 248.000,131.900 248.000 C 131.572 248.000,130.177 247.640,128.800 247.200 C 125.880 246.267,123.636 246.221,121.400 247.048 M129.391 247.881 C 139.117 249.944,143.828 257.713,143.772 271.600 C 143.710 287.211,137.416 295.705,125.200 296.665 C 116.833 297.322,109.851 292.072,106.227 282.400 C 104.950 278.991,104.241 267.317,105.134 264.400 C 109.174 251.204,117.696 245.400,129.391 247.881 M339.187 339.713 C 338.630 340.201,337.730 340.919,337.187 341.309 L 336.200 342.018 337.400 341.447 C 338.060 341.133,339.036 340.409,339.570 339.838 C 340.752 338.572,340.561 338.509,339.187 339.713 " stroke="none" fill="#689cc9" fill-rule="evenodd" />
    <path id="path3" d="M211.330 50.607 C 210.773 51.244,210.037 51.600,209.279 51.600 C 208.519 51.600,207.897 51.903,207.534 52.449 C 207.190 52.966,206.353 53.399,205.391 53.555 C 203.939 53.791,203.792 53.933,203.568 55.310 C 203.267 57.164,203.164 57.267,201.304 57.568 L 199.800 57.812 199.506 61.006 C 199.345 62.763,199.255 91.920,199.306 125.800 L 199.400 187.400 204.000 192.000 L 208.600 196.600 273.045 196.600 L 337.490 196.600 339.344 194.637 C 340.711 193.191,341.592 192.610,342.693 192.431 C 344.067 192.208,344.209 192.060,344.445 190.609 C 344.601 189.647,345.034 188.810,345.551 188.466 L 346.400 187.902 346.400 124.446 L 346.400 60.990 343.300 57.777 C 341.595 56.010,338.990 53.447,337.510 52.082 L 334.820 49.600 273.510 49.607 L 212.200 49.614 211.330 50.607 M334.320 50.567 C 334.914 50.879,337.785 53.549,340.700 56.500 L 346.000 61.866 346.000 124.463 L 346.000 187.061 345.000 188.000 C 344.426 188.539,344.000 189.387,344.000 189.990 C 344.000 191.320,343.325 192.000,342.005 192.000 C 341.292 192.000,340.356 192.623,339.000 194.000 L 337.030 196.000 273.021 196.000 L 209.013 196.000 204.506 191.507 L 200.000 187.013 200.000 122.987 C 200.000 54.536,199.893 58.000,202.000 58.000 C 203.322 58.000,204.000 57.322,204.000 56.000 C 204.000 54.675,204.679 54.000,206.010 54.000 C 206.613 54.000,207.461 53.574,208.000 53.000 C 208.544 52.421,209.386 52.000,210.000 52.000 C 210.614 52.000,211.456 51.579,212.000 51.000 L 212.939 50.000 273.090 50.000 C 324.231 50.000,333.401 50.085,334.320 50.567 M61.682 52.048 C 60.001 52.883,55.010 57.676,53.039 60.347 C 51.230 62.799,51.200 63.535,51.200 105.343 C 51.200 139.634,51.120 145.153,50.613 145.824 C 49.821 146.870,49.804 151.188,50.587 152.224 C 51.384 153.277,51.347 154.775,50.500 155.710 C 49.465 156.853,49.203 180.086,50.194 182.820 C 50.549 183.799,51.109 185.458,51.437 186.506 C 52.115 188.667,54.823 192.206,56.715 193.400 C 57.411 193.840,58.661 194.635,59.491 195.166 L 61.000 196.133 124.097 196.098 L 187.194 196.062 188.251 195.231 C 188.832 194.774,189.706 194.400,190.193 194.400 C 191.304 194.400,193.946 191.873,194.502 190.280 C 194.732 189.620,195.238 188.762,195.627 188.373 C 196.830 187.170,196.864 185.114,196.706 121.976 L 196.552 60.551 194.976 57.809 C 193.474 55.196,191.386 53.199,188.800 51.902 C 188.014 51.507,174.499 51.378,125.600 51.297 L 63.400 51.194 61.682 52.048 M189.608 53.660 C 192.305 55.457,193.164 56.396,194.643 59.167 L 195.800 61.334 195.800 124.034 L 195.800 186.735 194.952 187.668 C 194.486 188.180,193.981 189.122,193.830 189.761 C 193.412 191.522,191.418 193.102,188.222 194.205 L 185.340 195.200 123.324 195.200 C 61.914 195.200,61.298 195.192,60.291 194.400 C 59.731 193.960,59.158 193.600,59.016 193.600 C 57.422 193.600,52.578 187.994,52.162 185.667 C 52.017 184.860,51.550 183.418,51.123 182.463 C 50.011 179.976,50.161 158.021,51.300 156.411 C 52.153 155.206,52.211 152.831,51.413 151.776 C 50.651 150.769,50.645 148.745,51.400 146.938 C 51.920 145.694,52.000 140.120,52.000 105.205 L 52.000 64.907 53.418 62.073 C 54.827 59.257,60.529 53.236,62.600 52.377 C 63.040 52.195,91.304 52.080,125.408 52.123 L 187.416 52.200 189.608 53.660 M99.743 84.016 C 99.051 84.228,98.372 84.697,98.232 85.060 C 97.512 86.938,97.463 161.393,98.182 161.987 C 98.742 162.450,100.518 162.596,106.546 162.676 C 110.756 162.732,121.310 162.929,130.000 163.114 C 149.729 163.535,148.400 164.044,148.400 156.058 C 148.400 149.122,150.321 149.824,130.932 149.670 C 121.030 149.591,114.443 149.386,114.200 149.149 C 113.695 148.656,113.918 130.758,114.435 130.219 C 114.657 129.988,120.368 129.884,128.969 129.954 L 143.137 130.069 143.865 128.958 C 144.920 127.347,145.166 119.867,144.223 118.044 C 143.209 116.084,142.554 116.000,128.254 116.000 C 118.448 116.000,114.834 115.874,114.480 115.520 C 113.802 114.842,113.802 99.158,114.480 98.480 C 114.837 98.123,118.891 98.000,130.251 98.000 C 148.813 98.000,147.448 98.560,147.670 90.850 L 147.800 86.336 146.494 85.168 L 145.187 84.000 124.850 84.000 C 113.664 84.000,103.722 83.917,102.756 83.816 C 101.790 83.714,100.434 83.804,99.743 84.016 M143.489 85.024 C 146.273 85.389,146.781 86.411,146.513 91.112 C 146.390 93.268,146.033 95.510,145.712 96.145 L 145.133 97.289 130.212 97.051 C 115.577 96.817,115.272 96.829,114.246 97.635 L 113.200 98.458 113.200 106.967 C 113.200 118.193,111.302 116.949,128.809 117.200 C 136.468 117.310,142.815 117.490,142.913 117.600 C 143.949 118.761,143.951 127.813,142.915 128.846 C 142.538 129.222,139.397 129.231,128.715 128.883 L 115.000 128.436 113.955 129.563 C 112.207 131.447,112.004 148.473,113.710 150.085 C 113.760 150.131,121.232 150.266,130.315 150.385 C 149.597 150.636,147.640 149.929,147.501 156.595 C 147.402 161.287,147.378 161.400,146.400 161.820 C 145.391 162.253,100.070 161.837,98.836 161.383 C 98.353 161.206,98.306 155.744,98.512 123.688 L 98.753 86.200 99.682 85.400 C 100.602 84.608,137.878 84.288,143.489 85.024 M245.356 87.992 C 244.171 88.470,243.999 89.158,243.963 93.529 C 243.919 99.077,243.319 98.800,255.375 98.800 C 268.189 98.800,266.724 96.718,266.990 115.315 C 267.653 161.707,267.579 159.084,268.248 159.640 C 269.175 160.409,278.770 160.171,279.600 159.359 C 280.121 158.849,280.212 154.887,280.289 129.286 C 280.376 100.630,280.401 99.782,281.156 99.163 C 282.096 98.392,289.589 97.823,291.516 98.376 C 292.784 98.740,301.157 98.138,301.649 97.648 C 302.431 96.869,302.392 89.192,301.602 88.402 C 300.741 87.541,247.433 87.152,245.356 87.992 M301.357 89.033 C 301.810 90.212,301.622 96.618,301.120 97.120 C 300.773 97.467,297.947 97.600,290.920 97.600 C 281.733 97.600,281.156 97.644,280.400 98.400 C 279.614 99.186,279.600 99.733,279.600 128.771 C 279.600 163.568,280.378 159.671,273.459 159.512 L 268.600 159.400 268.200 129.675 C 267.806 100.361,267.788 99.938,266.963 99.012 C 265.815 97.724,263.029 97.433,254.501 97.708 C 244.441 98.033,244.019 97.798,244.490 92.115 C 244.824 88.091,242.385 88.400,273.802 88.400 C 298.338 88.400,301.139 88.464,301.357 89.033 M206.926 199.100 C 205.669 200.359,204.485 201.135,203.415 201.400 C 201.973 201.757,201.757 201.972,201.400 203.406 C 201.180 204.289,200.595 205.414,200.100 205.906 L 199.200 206.800 199.200 271.019 L 199.200 335.238 200.137 336.119 C 200.652 336.604,201.186 337.579,201.324 338.288 C 201.668 340.051,205.964 344.339,207.713 344.664 C 208.421 344.795,209.305 345.285,209.677 345.751 L 210.354 346.600 273.009 346.600 C 343.117 346.600,336.800 346.865,336.800 343.929 C 336.800 343.046,337.074 342.696,338.100 342.264 C 340.184 341.388,344.800 335.801,344.800 334.154 C 344.800 333.649,345.252 332.785,345.804 332.233 L 346.808 331.229 346.704 269.763 L 346.600 208.298 345.700 207.700 C 344.998 207.234,344.800 206.723,344.800 205.377 C 344.800 202.545,344.267 201.652,342.398 201.353 C 341.431 201.199,340.613 200.797,340.381 200.364 C 340.166 199.963,339.317 199.510,338.495 199.358 C 337.673 199.207,336.604 198.659,336.119 198.141 L 335.238 197.200 272.030 197.200 L 208.821 197.200 206.926 199.100 M336.163 199.000 C 336.647 199.738,337.170 200.000,338.163 200.000 C 339.147 200.000,339.679 200.262,340.147 200.975 C 340.601 201.669,341.222 201.987,342.293 202.075 L 343.800 202.200 343.919 204.703 C 344.021 206.850,344.178 207.298,345.019 207.849 L 346.000 208.492 346.000 269.900 L 346.000 331.308 345.000 332.235 C 344.398 332.793,344.000 333.602,344.000 334.267 C 344.000 334.875,343.595 335.798,343.100 336.320 C 340.488 339.071,338.485 340.901,337.518 341.421 C 336.742 341.838,336.365 342.426,336.187 343.501 C 336.050 344.325,335.867 345.225,335.781 345.500 C 335.657 345.897,322.762 346.000,273.059 346.000 L 210.492 346.000 209.837 345.000 C 209.381 344.304,208.820 344.000,207.991 344.000 C 206.281 344.000,202.000 339.719,202.000 338.009 C 202.000 337.180,201.696 336.619,201.000 336.163 L 200.000 335.508 200.000 271.000 L 200.000 206.492 200.975 205.853 C 201.669 205.399,201.987 204.778,202.075 203.707 C 202.192 202.297,202.292 202.192,203.620 202.081 C 204.738 201.987,205.419 201.543,206.820 199.994 L 208.600 198.026 272.054 198.013 L 335.508 198.000 336.163 199.000 M55.100 201.172 C 54.203 202.097,53.600 203.108,53.600 203.689 C 53.600 204.223,53.150 205.083,52.600 205.600 L 51.600 206.539 51.600 271.047 C 51.600 332.261,51.636 335.581,52.307 336.077 C 52.696 336.365,53.309 337.062,53.669 337.628 C 54.029 338.193,55.061 339.422,55.962 340.360 C 56.863 341.298,57.600 342.226,57.600 342.422 C 57.600 342.618,58.415 343.594,59.411 344.589 L 61.221 346.400 121.549 346.400 C 179.827 346.400,181.899 346.375,182.548 345.657 C 183.045 345.109,184.011 344.854,186.236 344.686 L 189.250 344.458 192.825 340.883 C 195.500 338.208,196.400 337.045,196.400 336.263 C 196.400 335.590,196.756 334.985,197.400 334.563 L 198.400 333.908 198.400 270.226 L 198.400 206.544 197.400 205.675 C 196.778 205.134,196.400 204.382,196.400 203.684 C 196.400 202.913,195.926 202.100,194.883 201.081 L 193.366 199.600 124.983 199.613 L 56.600 199.627 55.100 201.172 M194.447 201.553 C 195.499 202.605,196.000 203.461,196.000 204.207 C 196.000 204.868,196.400 205.679,197.000 206.235 L 198.000 207.162 198.000 270.152 L 198.000 333.142 197.050 333.889 C 196.527 334.301,195.974 335.207,195.821 335.903 C 195.638 336.736,194.402 338.336,192.204 340.585 L 188.864 344.000 185.902 344.000 C 183.259 344.000,182.838 344.108,182.000 345.000 L 181.061 346.000 121.666 346.000 L 62.272 346.000 60.036 343.679 C 58.806 342.403,56.990 340.415,56.000 339.261 C 55.010 338.107,53.705 336.625,53.100 335.968 L 52.000 334.772 52.000 270.795 L 52.000 206.818 53.000 206.163 C 53.684 205.715,54.000 205.144,54.000 204.354 C 54.000 203.541,54.473 202.727,55.600 201.600 L 57.200 200.000 125.047 200.000 L 192.894 200.000 194.447 201.553 M258.003 219.189 C 257.675 219.397,256.415 219.675,255.203 219.808 C 251.038 220.265,250.801 220.370,249.566 222.317 C 247.604 225.411,247.806 225.954,253.154 231.945 C 255.820 234.933,259.246 238.936,268.093 249.400 C 271.442 253.360,274.545 256.975,274.990 257.434 C 282.145 264.808,283.126 266.790,280.334 268.234 C 279.691 268.567,278.821 269.403,278.402 270.093 C 277.413 271.719,274.525 273.998,273.444 274.006 C 272.159 274.015,270.070 275.358,260.711 282.192 C 257.692 284.396,253.943 287.100,252.380 288.200 C 250.817 289.300,248.929 290.650,248.185 291.200 C 247.442 291.750,246.186 292.650,245.395 293.200 C 240.893 296.331,231.692 303.556,230.860 304.614 C 228.420 307.717,228.473 310.537,231.000 312.072 C 236.164 315.211,239.360 314.805,246.210 310.143 C 248.750 308.414,251.407 306.651,252.114 306.225 C 252.821 305.799,254.424 304.629,255.675 303.625 C 256.926 302.621,258.546 301.397,259.275 300.904 C 260.568 300.029,268.822 293.995,273.643 290.400 C 274.971 289.410,276.629 288.253,277.328 287.828 C 278.028 287.404,279.951 286.039,281.602 284.795 C 283.253 283.551,285.053 282.297,285.602 282.008 C 287.098 281.221,289.309 279.208,290.109 277.906 C 290.499 277.271,291.451 276.487,292.226 276.163 C 293.001 275.840,293.725 275.341,293.834 275.055 C 293.944 274.769,295.650 273.315,297.626 271.824 C 302.323 268.279,303.326 265.794,301.166 263.048 C 300.707 262.465,300.146 261.315,299.920 260.494 C 299.529 259.078,298.716 258.089,293.700 252.926 C 292.545 251.738,291.600 250.572,291.600 250.335 C 291.600 249.849,290.277 248.269,286.444 244.177 C 284.990 242.624,283.233 240.703,282.539 239.907 C 281.845 239.112,280.740 238.183,280.082 237.842 C 278.750 237.154,276.722 234.771,275.938 232.974 C 275.188 231.254,272.798 228.400,272.107 228.400 C 271.779 228.400,269.704 226.579,267.496 224.354 C 262.698 219.519,259.895 217.994,258.003 219.189 M266.443 224.333 C 268.556 226.520,270.671 228.432,271.143 228.582 C 272.143 228.899,275.600 232.997,275.600 233.865 C 275.600 234.651,278.782 238.400,279.449 238.400 C 280.079 238.400,282.047 240.331,285.555 244.391 C 286.985 246.046,288.840 248.118,289.678 248.996 C 290.515 249.874,291.200 250.738,291.200 250.916 C 291.200 251.095,292.092 252.177,293.183 253.321 C 297.735 258.093,298.832 259.491,299.423 261.269 C 299.764 262.297,300.292 263.345,300.596 263.597 C 302.422 265.113,301.509 267.825,298.371 270.202 C 297.211 271.081,295.468 272.584,294.498 273.541 C 293.528 274.499,292.140 275.447,291.413 275.647 C 290.520 275.894,289.938 276.384,289.617 277.159 C 289.164 278.254,285.485 281.600,284.735 281.600 C 284.538 281.600,283.257 282.460,281.889 283.512 C 280.520 284.564,278.410 286.096,277.200 286.916 C 275.990 287.737,273.740 289.316,272.200 290.426 C 270.660 291.536,268.943 292.749,268.384 293.122 C 267.825 293.495,265.965 294.880,264.250 296.200 C 262.535 297.520,260.742 298.863,260.266 299.185 C 258.651 300.277,253.401 304.176,253.200 304.433 C 253.090 304.573,252.370 305.011,251.600 305.405 C 250.830 305.799,249.277 306.859,248.148 307.761 C 246.088 309.406,245.103 310.039,241.400 312.091 C 239.067 313.384,234.508 313.694,233.617 312.620 C 233.352 312.302,232.533 311.842,231.795 311.598 C 229.176 310.734,229.573 306.793,232.546 304.149 C 235.369 301.638,245.447 294.008,249.445 291.356 C 250.790 290.464,252.140 289.522,252.445 289.262 C 253.925 288.004,256.141 286.400,256.400 286.400 C 256.559 286.400,257.390 285.857,258.245 285.194 C 259.100 284.530,260.160 283.719,260.600 283.390 C 261.040 283.062,261.940 282.372,262.600 281.857 C 263.260 281.343,264.946 280.129,266.346 279.161 C 267.747 278.192,269.727 276.818,270.746 276.106 C 271.766 275.394,273.230 274.698,274.000 274.560 C 275.019 274.376,276.114 273.585,278.025 271.654 C 279.469 270.194,281.144 268.600,281.746 268.112 C 283.737 266.497,282.869 264.541,277.977 259.627 C 277.415 259.062,273.635 254.678,269.577 249.885 C 258.960 237.341,254.389 232.021,252.669 230.200 C 251.837 229.320,250.691 227.821,250.122 226.869 L 249.088 225.138 249.999 223.469 C 250.500 222.551,251.122 221.569,251.382 221.288 C 251.960 220.660,257.403 220.008,260.400 220.208 L 262.600 220.355 266.443 224.333 M117.689 234.014 C 116.088 234.182,114.536 234.521,114.241 234.766 C 113.945 235.012,112.801 235.480,111.699 235.808 C 110.597 236.135,109.487 236.654,109.232 236.962 C 108.976 237.270,108.295 237.640,107.718 237.785 C 107.140 237.930,106.203 238.412,105.634 238.856 C 105.065 239.301,103.700 240.235,102.600 240.932 C 101.500 241.629,99.610 243.187,98.400 244.393 C 96.350 246.436,95.600 247.474,94.344 250.000 C 94.071 250.550,93.506 251.388,93.090 251.862 C 92.673 252.336,92.160 253.488,91.951 254.422 C 91.741 255.356,91.242 256.588,90.842 257.160 C 90.442 257.732,89.994 259.263,89.847 260.562 C 89.699 261.862,89.223 264.281,88.789 265.938 C 87.686 270.150,87.684 277.521,88.785 280.654 C 89.217 281.882,89.691 283.954,89.838 285.257 C 89.987 286.572,90.428 288.036,90.828 288.545 C 91.226 289.050,91.677 289.989,91.832 290.632 C 92.605 293.842,95.943 298.274,100.544 302.200 C 101.833 303.300,103.273 304.578,103.744 305.039 C 110.320 311.487,132.473 312.323,141.989 306.481 C 149.189 302.062,152.388 298.656,156.341 291.200 C 161.878 280.759,161.683 260.867,155.954 251.617 C 155.335 250.618,154.566 249.260,154.246 248.600 C 153.073 246.186,144.787 238.284,142.942 237.821 C 142.349 237.672,141.420 237.202,140.878 236.775 C 140.336 236.349,139.504 236.000,139.031 236.000 C 138.557 236.000,137.456 235.633,136.585 235.183 C 133.777 233.736,125.319 233.213,117.689 234.014 M135.084 235.508 C 136.010 235.999,137.280 236.400,137.906 236.400 C 138.532 236.400,139.655 236.850,140.400 237.400 C 141.145 237.950,142.035 238.404,142.378 238.409 C 143.520 238.426,153.600 248.009,153.600 249.078 C 153.600 249.304,154.057 250.162,154.616 250.986 C 159.023 257.479,160.725 272.062,158.284 282.400 C 155.143 295.705,147.231 304.499,135.000 308.282 C 128.134 310.406,115.913 309.683,109.133 306.753 C 107.666 306.119,106.211 305.600,105.898 305.600 C 105.343 305.600,100.313 301.178,97.709 298.400 C 96.988 297.630,95.948 296.526,95.399 295.946 C 94.849 295.366,94.400 294.636,94.400 294.324 C 94.400 294.011,93.950 293.145,93.400 292.400 C 92.850 291.655,92.400 290.643,92.400 290.153 C 92.400 289.663,91.950 288.727,91.400 288.073 C 90.586 287.105,90.398 286.450,90.392 284.542 C 90.386 283.091,90.007 281.135,89.393 279.400 C 88.128 275.820,88.067 271.900,89.221 268.336 C 89.673 266.941,90.149 264.270,90.279 262.400 C 90.471 259.629,90.689 258.791,91.457 257.869 C 91.976 257.247,92.401 256.257,92.401 255.669 C 92.402 255.081,92.798 253.970,93.280 253.200 C 94.637 251.034,95.500 249.518,96.182 248.105 C 97.027 246.354,100.687 242.869,103.225 241.400 C 104.365 240.740,105.668 239.795,106.121 239.300 C 106.574 238.805,107.348 238.400,107.841 238.400 C 108.335 238.400,109.273 237.950,109.927 237.400 C 110.581 236.850,111.593 236.400,112.178 236.400 C 112.762 236.400,113.816 236.100,114.520 235.733 C 116.735 234.579,118.005 234.444,125.800 234.531 C 132.800 234.609,133.533 234.686,135.084 235.508 M121.000 246.226 C 120.120 246.578,118.500 247.095,117.400 247.375 C 112.982 248.500,106.722 254.600,105.581 258.892 C 105.331 259.831,104.745 261.222,104.279 261.983 C 102.873 264.279,103.098 280.294,104.577 283.071 C 105.139 284.129,105.600 285.386,105.600 285.866 C 105.600 286.346,106.013 287.247,106.517 287.869 C 107.022 288.491,107.731 289.472,108.093 290.049 C 109.610 292.465,112.909 295.813,114.078 296.124 C 114.749 296.302,115.771 296.782,116.349 297.190 C 122.170 301.298,134.427 298.607,139.702 292.063 C 150.891 278.185,146.159 250.045,132.196 247.426 C 131.364 247.270,130.244 246.854,129.708 246.503 C 128.288 245.573,123.052 245.406,121.000 246.226 M128.800 247.200 C 130.177 247.640,131.572 248.000,131.900 248.000 C 134.235 248.000,140.125 253.472,141.985 257.369 C 146.339 266.493,145.571 281.884,140.385 289.421 C 132.738 300.537,117.042 301.001,109.354 290.339 C 108.719 289.459,107.824 288.258,107.363 287.669 C 106.903 287.081,106.312 285.728,106.048 284.663 C 105.785 283.597,105.262 282.255,104.885 281.681 C 103.872 280.136,103.858 264.288,104.867 262.746 C 105.234 262.186,105.748 260.936,106.009 259.968 C 106.269 258.999,106.824 257.728,107.241 257.142 C 107.659 256.556,108.000 255.914,108.000 255.715 C 108.000 254.205,115.246 248.631,117.983 248.035 C 118.982 247.818,120.520 247.373,121.400 247.048 C 123.636 246.221,125.880 246.267,128.800 247.200 M272.800 301.940 C 268.050 302.555,264.808 306.529,266.448 309.726 C 267.147 311.090,269.297 313.237,270.400 313.673 C 272.082 314.337,300.614 314.118,301.926 313.431 C 306.444 311.064,308.191 305.566,305.405 302.483 C 304.874 301.895,276.764 301.426,272.800 301.940 M303.706 302.658 C 306.800 303.169,306.733 307.857,303.588 311.003 L 301.375 313.216 286.044 313.308 L 270.713 313.400 268.757 311.272 C 266.102 308.385,266.096 307.231,268.724 304.712 C 269.858 303.626,271.132 302.796,271.824 302.694 C 273.705 302.416,302.046 302.383,303.706 302.658 " stroke="none" fill="#94b2d1" fill-rule="evenodd" />
    <path id="path4" d="M212.000 51.000 C 211.456 51.579,210.614 52.000,210.000 52.000 C 209.386 52.000,208.544 52.421,208.000 53.000 C 207.461 53.574,206.613 54.000,206.010 54.000 C 204.679 54.000,204.000 54.675,204.000 56.000 C 204.000 57.322,203.322 58.000,202.000 58.000 C 199.893 58.000,200.000 54.536,200.000 122.987 L 200.000 187.013 204.506 191.507 L 209.013 196.000 273.021 196.000 L 337.030 196.000 339.000 194.000 C 340.356 192.623,341.292 192.000,342.005 192.000 C 343.325 192.000,344.000 191.320,344.000 189.990 C 344.000 189.386,344.426 188.539,345.004 187.997 L 346.007 187.054 345.904 124.333 L 345.800 61.612 340.600 56.378 C 337.740 53.500,334.914 50.887,334.320 50.572 C 333.397 50.083,324.496 50.000,273.090 50.000 L 212.939 50.000 212.000 51.000 M334.664 51.958 C 335.729 52.816,338.580 55.519,341.000 57.965 L 345.400 62.414 345.504 124.595 L 345.607 186.777 344.604 187.434 C 343.880 187.909,343.600 188.447,343.600 189.366 C 343.600 190.948,342.981 191.600,341.477 191.600 C 340.599 191.600,339.855 192.089,338.437 193.600 L 336.559 195.600 273.050 195.600 L 209.540 195.600 204.970 191.030 L 200.400 186.460 200.400 122.879 C 200.400 72.394,200.503 59.212,200.902 58.882 C 201.177 58.653,202.032 58.406,202.802 58.333 C 204.077 58.212,204.212 58.077,204.333 56.802 C 204.508 54.951,205.030 54.400,206.603 54.400 C 207.554 54.400,208.086 54.128,208.563 53.400 C 209.047 52.662,209.570 52.400,210.563 52.400 C 211.556 52.400,212.079 52.138,212.563 51.400 L 213.218 50.400 272.973 50.400 L 332.728 50.400 334.664 51.958 M245.750 86.721 C 243.858 86.991,243.287 88.298,243.182 92.600 C 243.055 97.809,243.040 97.710,244.181 98.942 L 245.162 100.000 255.157 100.000 C 262.715 100.000,265.232 100.122,265.476 100.500 C 265.653 100.775,265.740 107.051,265.669 114.446 C 265.583 123.389,265.688 128.441,265.981 129.531 C 266.248 130.521,266.483 136.755,266.574 145.285 C 266.753 161.912,266.601 159.862,267.700 160.469 C 268.750 161.048,278.562 160.956,279.683 160.356 C 281.093 159.601,281.301 157.130,281.150 143.000 C 280.853 115.232,281.187 100.948,282.155 100.069 C 283.409 98.930,289.864 98.502,291.673 99.438 C 292.702 99.970,293.204 100.016,294.180 99.670 C 294.851 99.432,296.789 99.114,298.487 98.964 C 302.460 98.614,302.631 98.404,302.936 93.498 C 303.416 85.781,305.766 86.333,273.066 86.480 C 258.510 86.546,246.217 86.655,245.750 86.721 M301.617 88.417 C 302.422 89.222,302.449 96.858,301.651 97.648 C 301.155 98.138,292.784 98.739,291.516 98.376 C 289.389 97.766,282.002 98.398,281.135 99.265 C 280.343 100.057,280.284 102.966,280.222 144.283 C 280.203 156.609,280.111 158.853,279.600 159.353 C 278.752 160.182,269.210 160.438,268.269 159.657 C 267.574 159.080,267.657 161.957,266.990 115.315 C 266.724 96.718,268.189 98.800,255.375 98.800 C 243.319 98.800,243.919 99.077,243.963 93.529 C 243.999 89.158,244.171 88.470,245.356 87.992 C 247.464 87.140,300.743 87.543,301.617 88.417 M114.573 98.926 C 114.462 99.215,114.546 99.890,114.760 100.426 L 115.149 101.400 115.175 100.300 C 115.191 99.581,115.416 99.200,115.824 99.200 C 116.167 99.200,116.336 99.020,116.200 98.800 C 115.846 98.226,114.811 98.307,114.573 98.926 M114.523 147.600 C 114.599 148.985,118.000 150.181,118.000 148.823 C 118.000 148.423,117.680 148.338,115.820 148.241 C 115.354 148.216,114.921 147.798,114.743 147.200 C 114.492 146.355,114.458 146.417,114.523 147.600 M137.834 148.745 C 137.572 149.169,141.644 149.553,143.697 149.299 C 144.520 149.197,145.094 148.953,144.973 148.757 C 144.690 148.298,138.117 148.288,137.834 148.745 M149.047 152.221 C 148.654 153.245,148.761 161.129,149.171 161.382 C 149.711 161.716,149.905 160.624,149.978 156.828 C 150.013 154.973,150.107 153.351,150.186 153.223 C 150.265 153.096,150.096 152.673,149.812 152.284 C 149.347 151.648,149.270 151.641,149.047 152.221 M56.432 190.857 C 56.396 191.606,57.453 192.162,57.811 191.583 C 57.941 191.372,57.782 191.200,57.457 191.200 C 57.132 191.200,56.776 190.975,56.665 190.700 C 56.538 190.384,56.452 190.442,56.432 190.857 M206.820 199.994 C 205.419 201.543,204.738 201.987,203.620 202.081 C 202.292 202.192,202.192 202.297,202.075 203.707 C 201.987 204.778,201.669 205.399,200.975 205.853 L 200.000 206.492 200.000 271.000 L 200.000 335.508 201.000 336.163 C 201.696 336.619,202.000 337.180,202.000 338.009 C 202.000 339.719,206.281 344.000,207.991 344.000 C 208.820 344.000,209.381 344.304,209.838 345.001 L 210.494 346.002 273.125 345.901 L 335.757 345.800 336.178 343.742 C 336.548 341.938,336.847 341.500,338.600 340.192 C 342.090 337.588,343.983 335.513,343.992 334.281 C 343.997 333.609,344.399 332.792,345.000 332.235 L 346.000 331.308 346.000 269.900 L 346.000 208.492 345.019 207.849 C 344.178 207.298,344.021 206.850,343.919 204.703 L 343.800 202.200 342.293 202.075 C 341.222 201.987,340.601 201.669,340.147 200.975 C 339.679 200.262,339.147 200.000,338.163 200.000 C 337.170 200.000,336.647 199.738,336.163 199.000 L 335.508 198.000 272.054 198.013 L 208.600 198.026 206.820 199.994 M335.763 199.400 C 336.247 200.138,336.770 200.400,337.763 200.400 C 338.747 200.400,339.279 200.662,339.747 201.375 C 340.201 202.069,340.822 202.387,341.893 202.475 L 343.400 202.600 343.519 205.103 C 343.621 207.250,343.778 207.698,344.619 208.249 L 345.600 208.892 345.600 270.000 L 345.600 331.108 344.600 331.763 C 343.900 332.222,343.600 332.780,343.600 333.623 C 343.600 335.149,338.578 340.141,336.268 340.911 C 336.030 340.990,335.738 342.032,335.618 343.227 L 335.400 345.400 273.147 345.501 L 210.894 345.603 210.238 344.601 C 209.781 343.904,209.220 343.600,208.391 343.600 C 206.681 343.600,202.400 339.319,202.400 337.609 C 202.400 336.780,202.096 336.219,201.400 335.763 L 200.400 335.108 200.400 271.000 L 200.400 206.892 201.375 206.253 C 202.069 205.799,202.387 205.178,202.475 204.107 C 202.592 202.697,202.692 202.592,204.020 202.481 C 205.138 202.387,205.819 201.943,207.220 200.394 L 209.000 198.426 272.054 198.413 L 335.108 198.400 335.763 199.400 M256.624 218.634 C 255.757 218.951,254.111 219.321,252.966 219.456 C 250.526 219.742,250.547 219.730,248.998 221.800 C 247.397 223.938,247.313 226.641,248.800 228.111 C 249.863 229.162,253.017 232.735,254.352 234.400 C 256.414 236.974,260.275 241.501,261.187 242.416 C 262.343 243.576,265.378 247.050,266.671 248.693 C 268.794 251.392,272.618 255.916,273.839 257.174 C 274.573 257.930,275.764 259.232,276.487 260.066 C 277.209 260.901,278.475 262.344,279.300 263.274 C 281.218 265.435,281.311 266.915,279.585 267.808 C 278.917 268.153,278.073 269.058,277.711 269.818 C 277.348 270.578,276.930 271.200,276.781 271.200 C 276.632 271.200,275.831 271.740,275.000 272.400 C 274.138 273.085,273.012 273.600,272.376 273.600 C 271.763 273.600,270.753 274.014,270.131 274.521 C 269.509 275.027,268.010 276.109,266.800 276.925 C 265.590 277.740,264.150 278.747,263.600 279.161 C 259.858 281.977,254.805 285.600,254.619 285.600 C 254.497 285.600,253.140 286.545,251.604 287.700 C 250.068 288.855,247.521 290.700,245.943 291.800 C 244.366 292.900,242.698 294.179,242.237 294.643 C 241.777 295.106,240.860 295.770,240.200 296.117 C 239.119 296.687,234.506 300.350,231.404 303.104 C 225.020 308.771,228.319 314.649,237.707 314.336 L 241.800 314.200 246.400 311.048 C 248.930 309.314,251.372 307.559,251.826 307.148 C 252.280 306.736,252.850 306.400,253.093 306.400 C 253.335 306.400,254.711 305.455,256.149 304.300 C 257.588 303.145,259.417 301.750,260.215 301.200 C 261.013 300.650,263.136 299.076,264.933 297.701 C 266.730 296.327,269.370 294.390,270.800 293.395 C 272.230 292.401,274.210 290.961,275.200 290.196 C 276.190 289.430,277.442 288.613,277.982 288.380 C 278.521 288.148,279.871 287.195,280.982 286.262 C 282.092 285.329,283.990 283.958,285.200 283.215 C 286.410 282.472,288.603 280.679,290.074 279.232 C 293.200 276.155,294.535 275.019,297.800 272.650 C 301.493 269.972,302.280 269.092,302.582 267.306 C 302.917 265.325,302.277 262.775,301.202 261.802 C 300.761 261.402,300.400 260.609,300.399 260.038 C 300.399 259.266,299.401 257.977,296.499 255.000 C 294.355 252.800,292.420 250.528,292.200 249.952 C 291.810 248.931,285.777 242.190,282.632 239.260 C 278.504 235.416,276.400 233.108,276.400 232.425 C 276.400 231.360,273.749 228.276,272.422 227.797 C 271.808 227.575,269.718 225.728,267.779 223.691 C 262.529 218.181,260.443 217.235,256.624 218.634 M261.840 219.562 C 262.774 219.986,265.210 222.050,267.496 224.354 C 269.704 226.579,271.779 228.400,272.107 228.400 C 272.798 228.400,275.188 231.254,275.938 232.974 C 276.722 234.771,278.750 237.154,280.082 237.842 C 280.740 238.183,281.845 239.112,282.539 239.907 C 283.233 240.703,284.990 242.624,286.444 244.177 C 290.236 248.225,291.600 249.849,291.600 250.313 C 291.600 250.537,293.397 252.583,295.594 254.860 C 298.398 257.766,299.661 259.380,299.834 260.277 C 299.969 260.979,300.512 262.139,301.040 262.854 C 303.299 265.916,302.430 268.199,297.626 271.824 C 295.650 273.315,293.944 274.769,293.834 275.055 C 293.725 275.341,293.001 275.840,292.226 276.163 C 291.451 276.487,290.499 277.271,290.109 277.906 C 289.283 279.250,287.483 280.827,284.400 282.907 C 279.900 285.942,276.945 288.015,275.023 289.487 C 273.936 290.319,272.226 291.546,271.223 292.214 C 270.220 292.881,267.870 294.604,266.000 296.043 C 264.130 297.482,261.402 299.475,259.938 300.472 C 258.473 301.469,256.422 302.986,255.379 303.842 C 254.336 304.699,252.883 305.760,252.151 306.200 C 251.418 306.640,248.743 308.414,246.205 310.143 C 240.497 314.032,236.850 314.966,233.487 313.401 C 225.694 309.773,227.083 306.741,241.403 296.112 C 247.166 291.834,253.748 287.085,255.972 285.600 C 257.455 284.610,260.362 282.530,262.434 280.977 C 269.216 275.894,272.184 274.015,273.444 274.006 C 274.574 273.998,277.541 271.605,278.260 270.122 C 278.577 269.467,279.458 268.634,280.218 268.272 C 283.068 266.913,281.962 264.619,274.990 257.434 C 274.545 256.975,271.442 253.360,268.093 249.400 C 258.552 238.115,255.726 234.820,252.864 231.640 C 247.825 226.042,247.603 225.414,249.566 222.317 C 250.801 220.370,251.038 220.265,255.203 219.808 C 256.415 219.675,257.675 219.397,258.003 219.189 C 258.896 218.625,260.016 218.734,261.840 219.562 M118.400 233.043 L 114.600 233.563 118.000 233.384 C 119.870 233.285,123.740 233.175,126.600 233.139 C 131.258 233.081,131.508 233.044,129.000 232.787 C 125.098 232.386,122.793 232.442,118.400 233.043 M133.300 233.476 C 133.685 233.576,134.315 233.576,134.700 233.476 C 135.085 233.375,134.770 233.293,134.000 233.293 C 133.230 233.293,132.915 233.375,133.300 233.476 M112.400 234.400 C 111.671 234.970,111.573 235.185,112.039 235.191 C 112.390 235.196,113.093 234.840,113.600 234.400 C 114.816 233.345,113.749 233.345,112.400 234.400 M136.717 234.457 C 137.441 234.920,138.133 235.201,138.254 235.079 C 138.375 234.958,137.927 234.576,137.257 234.229 C 135.507 233.325,135.170 233.466,136.717 234.457 M108.500 235.996 C 107.785 236.432,107.200 236.896,107.200 237.027 C 107.200 237.158,107.785 236.913,108.500 236.483 C 109.215 236.052,110.070 235.602,110.400 235.482 C 110.933 235.287,110.933 235.260,110.400 235.233 C 110.070 235.217,109.215 235.560,108.500 235.996 M104.000 238.600 C 103.255 239.150,102.850 239.600,103.100 239.600 C 103.553 239.600,106.001 237.637,105.578 237.613 C 105.455 237.606,104.745 238.050,104.000 238.600 M99.711 241.700 C 99.030 242.581,98.717 243.430,99.370 242.624 C 99.717 242.197,100.225 241.704,100.500 241.530 C 100.827 241.322,100.844 241.210,100.549 241.206 C 100.301 241.203,99.924 241.425,99.711 241.700 M94.029 248.254 C 93.573 248.834,93.211 249.599,93.225 249.954 C 93.241 250.345,93.407 250.208,93.646 249.608 C 93.864 249.063,94.331 248.298,94.683 247.908 C 95.036 247.519,95.219 247.200,95.091 247.200 C 94.963 247.200,94.485 247.674,94.029 248.254 M120.400 248.000 C 117.167 248.898,117.654 248.981,121.664 248.214 C 125.361 247.506,131.391 248.231,133.284 249.610 C 133.880 250.045,134.546 250.400,134.765 250.400 C 135.593 250.400,139.263 254.548,140.362 256.727 C 142.422 260.811,143.310 264.536,143.623 270.400 L 143.911 275.800 143.798 270.000 C 143.480 253.693,133.541 244.348,120.400 248.000 M114.508 250.212 C 111.202 252.378,106.093 258.626,106.937 259.470 C 107.010 259.544,107.574 258.658,108.189 257.502 C 109.619 254.813,112.499 251.799,114.800 250.583 C 117.432 249.192,117.957 248.809,117.200 248.826 C 116.870 248.834,115.659 249.457,114.508 250.212 M90.300 255.814 C 89.301 257.150,89.431 257.523,90.446 256.233 C 90.911 255.642,91.226 255.095,91.146 255.018 C 91.066 254.941,90.685 255.300,90.300 255.814 M88.300 262.500 C 87.915 263.439,87.608 264.567,87.619 265.004 C 87.629 265.442,87.991 264.900,88.424 263.800 C 88.856 262.700,89.163 261.573,89.105 261.295 C 89.047 261.018,88.685 261.560,88.300 262.500 M105.627 262.698 C 105.350 263.304,105.058 264.790,104.979 266.000 L 104.834 268.200 105.174 266.200 C 105.361 265.100,105.719 263.680,105.968 263.045 C 106.558 261.544,106.282 261.264,105.627 262.698 M87.314 268.600 C 87.317 269.700,87.395 270.103,87.487 269.495 C 87.579 268.886,87.577 267.986,87.482 267.495 C 87.387 267.003,87.311 267.500,87.314 268.600 M104.928 274.800 C 104.928 276.230,105.001 276.815,105.089 276.100 C 105.178 275.385,105.178 274.215,105.089 273.500 C 105.001 272.785,104.928 273.370,104.928 274.800 M87.301 278.600 C 87.305 279.480,87.387 279.793,87.483 279.295 C 87.579 278.798,87.575 278.078,87.475 277.695 C 87.375 277.313,87.296 277.720,87.301 278.600 M142.240 281.840 C 141.853 283.067,141.609 284.142,141.697 284.230 C 141.785 284.318,142.173 283.387,142.560 282.160 C 142.947 280.933,143.191 279.858,143.103 279.770 C 143.015 279.682,142.627 280.613,142.240 281.840 M87.609 281.256 C 87.604 281.617,87.956 282.697,88.391 283.656 C 88.826 284.615,89.186 285.105,89.191 284.744 C 89.196 284.383,88.844 283.303,88.409 282.344 C 87.974 281.385,87.614 280.895,87.609 281.256 M140.553 286.500 C 139.176 288.836,139.086 289.035,139.787 288.200 C 140.600 287.232,141.300 286.000,141.038 286.000 C 140.933 286.000,140.715 286.225,140.553 286.500 M89.227 287.600 C 89.196 288.382,90.770 290.963,91.086 290.648 C 91.219 290.514,91.039 290.085,90.685 289.694 C 90.332 289.303,89.864 288.537,89.646 287.992 C 89.429 287.446,89.240 287.270,89.227 287.600 M91.600 293.586 C 91.600 293.798,92.005 294.184,92.500 294.444 C 93.395 294.914,93.396 294.912,92.638 294.058 C 91.791 293.105,91.600 293.018,91.600 293.586 M93.200 295.529 C 93.200 295.771,93.533 296.291,93.941 296.684 C 94.348 297.078,94.883 297.760,95.129 298.200 C 95.375 298.640,95.581 298.800,95.588 298.555 C 95.595 298.310,95.060 297.431,94.400 296.600 C 93.740 295.769,93.200 295.288,93.200 295.529 M122.291 296.689 C 123.001 296.777,124.261 296.779,125.091 296.692 C 125.921 296.605,125.340 296.533,123.800 296.531 C 122.260 296.529,121.581 296.600,122.291 296.689 M99.039 302.270 C 101.322 304.430,104.222 306.800,104.583 306.800 C 104.714 306.800,103.567 305.722,102.036 304.403 C 100.504 303.085,99.140 301.826,99.003 301.606 C 98.867 301.385,98.360 301.010,97.878 300.772 C 97.395 300.534,97.918 301.208,99.039 302.270 M274.600 301.058 C 273.500 301.348,272.096 301.588,271.480 301.592 C 266.112 301.629,263.567 308.475,267.445 312.446 C 269.907 314.967,270.977 315.057,291.928 314.494 L 302.855 314.200 304.528 312.350 C 306.591 310.067,308.000 307.798,308.000 306.759 C 308.000 305.888,306.231 302.190,305.639 301.824 C 304.177 300.920,277.615 300.265,274.600 301.058 M305.405 302.483 C 308.190 305.566,306.444 311.064,301.929 313.429 C 300.611 314.120,272.070 314.342,270.400 313.675 C 263.731 311.010,265.390 302.899,272.800 301.940 C 276.764 301.426,304.874 301.895,305.405 302.483 M105.858 307.594 C 106.330 308.089,106.922 308.426,107.173 308.342 C 107.424 308.259,107.038 307.853,106.315 307.442 L 105.000 306.693 105.858 307.594 M110.344 309.613 C 110.864 310.046,111.667 310.400,112.129 310.400 C 112.740 310.400,112.540 310.181,111.400 309.600 C 109.438 308.600,109.132 308.604,110.344 309.613 M115.800 311.007 C 116.900 311.348,118.610 311.713,119.600 311.819 L 121.400 312.012 119.600 311.412 C 118.610 311.083,116.900 310.717,115.800 310.601 L 113.800 310.388 115.800 311.007 M129.800 311.600 L 127.800 311.874 129.600 311.909 C 130.590 311.928,131.760 311.789,132.200 311.600 C 133.113 311.208,132.662 311.208,129.800 311.600 M123.111 312.293 C 124.051 312.378,125.491 312.377,126.311 312.291 C 127.130 312.205,126.360 312.136,124.600 312.137 C 122.840 312.139,122.170 312.209,123.111 312.293 M55.808 337.969 C 56.243 338.503,57.495 339.853,58.588 340.969 C 59.682 342.086,60.133 342.460,59.591 341.800 C 59.049 341.140,57.798 339.790,56.811 338.800 C 55.823 337.810,55.372 337.436,55.808 337.969 " stroke="none" fill="#7c84b4" fill-rule="evenodd" />
  <path d="m 205.13298,190.94736 -4.29849,-4.32386 V 123.04693 59.470346 l 1.94715,-0.813571 c 1.19514,-0.499363 1.94715,-1.197433 1.94715,-1.807495 0,-1.250216 1.0508,-2.329113 2.26846,-2.329113 0.5133,0 1.24493,-0.375522 1.62584,-0.834492 0.38091,-0.458971 1.16261,-0.834493 1.7371,-0.834493 0.5745,0 1.54523,-0.500695 2.1572,-1.112656 1.0988,-1.098803 1.85442,-1.112657 60.68692,-1.112657 h 59.57426 l 6.07382,5.980529 6.07384,5.980528 0.36799,61.619514 0.36799,61.61951 -1.15507,1.24558 c -0.6353,0.68507 -1.23961,1.85665 -1.34293,2.60351 -0.13489,0.9751 -0.66428,1.4807 -1.87773,1.79335 -0.92944,0.23948 -2.41578,1.19308 -3.30298,2.11911 l -1.61309,1.68371 h -63.46946 -63.46947 z m 75.25645,-31.069 c 0.71372,-0.69 0.87475,-5.03379 1.11266,-30.01553 0.23546,-24.72459 0.40219,-29.28538 1.08605,-29.7077 1.45303,-0.897317 5.94678,-1.225295 8.25868,-0.602762 3.13466,0.844072 10.02471,-0.225541 11.37849,-1.766407 1.36666,-1.55552 1.40705,-9.389875 0.0542,-10.513391 -0.74626,-0.619757 -6.18826,-0.795067 -28.90066,-0.931012 -33.15299,-0.198437 -30.2634,-0.860952 -30.2634,6.938697 0,7.009965 -0.2404,6.857065 10.79554,6.866425 4.92476,0.004 9.47883,0.14847 10.12017,0.32064 1.1447,0.30731 1.17393,0.66635 1.59594,19.60298 0.23643,10.60946 0.58793,24.04653 0.78109,29.86016 l 0.35121,10.57024 2.22531,0.36415 c 3.40209,0.55672 10.43796,-0.0519 11.40473,-0.98649 z" id="path277" stroke-width="0.556328" fill="#4400aa" />
  <path d="m 205.41192,190.66988 -4.57743,-4.60133 V 122.90087 59.733199 l 1.89961,-0.90586 c 1.04478,-0.498222 2.06037,-1.412368 2.25685,-2.031434 0.21948,-0.691513 2.11503,-2.015241 4.91541,-3.432596 l 4.55817,-2.307022 58.88247,-0.294606 58.88246,-0.294606 6.25826,6.240499 6.25825,6.240498 0.33011,61.184168 0.33011,61.18418 -1.354,1.99522 c -0.7447,1.09738 -1.354,2.31133 -1.354,2.69766 0,0.38634 -0.71199,0.95064 -1.58221,1.254 -0.87022,0.30336 -2.46795,1.32925 -3.5505,2.27974 l -1.96828,1.72817 h -62.80393 -62.80393 z m 74.52073,-30.16857 c 1.31534,-0.51749 1.46644,-3.0857 1.96951,-33.47397 0.23893,-14.4326 0.64338,-26.44929 0.89877,-26.70376 0.25539,-0.25446 4.01061,-0.468226 8.34492,-0.475028 10.94427,-0.01717 12.20388,-0.786459 12.27718,-7.498065 0.0511,-4.677828 -0.38702,-5.361073 -3.69207,-5.758039 -4.85231,-0.582805 -53.05194,-0.41981 -54.64213,0.18478 -0.79036,0.300493 -1.66574,1.147951 -1.9453,1.88324 -0.68431,1.799867 -0.0426,9.715686 0.86091,10.619158 0.50204,0.50204 3.69578,0.845664 10.49086,1.128754 5.37299,0.22384 9.90128,0.62089 10.06286,0.88233 0.21233,0.34356 1.79939,48.87937 1.91209,58.47588 0.006,0.51419 0.57426,1.05995 1.26271,1.21281 1.63469,0.36295 10.99426,-0.004 12.19969,-0.47809 z" id="path390" stroke-width="0.556328" fill="#4400aa" />
  <path d="m 59.248957,193.49258 c -1.223922,-0.64949 -1.912378,-1.28691 -1.529903,-1.41648 0.922123,-0.31238 0.897976,-2.36817 -0.02782,-2.36817 -0.397775,0 -0.998013,0.27478 -1.333862,0.61063 -0.791031,0.79104 -3.122134,-2.56115 -4.476216,-6.43691 -1.301777,-3.72605 -1.433922,-23.67303 -0.181832,-27.44717 0.649161,-1.95676 0.66895,-2.74664 0.107696,-4.29876 -0.52207,-1.44376 -0.546115,-2.91874 -0.09988,-6.12702 0.36589,-2.63066 0.589684,-18.75128 0.592935,-42.71099 l 0.0052,-38.485471 1.615624,-2.781641 c 0.888593,-1.529903 3.147217,-4.283727 5.019164,-6.119611 l 3.40354,-3.337969 62.430417,-0.14603 62.43041,-0.146031 2.77365,2.110478 c 1.5255,1.160763 3.3364,3.104085 4.02423,4.318493 l 1.25058,2.208014 0.009,62.730088 0.009,62.73008 -1.50252,2.78201 c -1.13376,2.09923 -2.12367,3.08813 -4.03338,4.0293 l -2.53086,1.2473 -62.86509,0.11838 -62.86509,0.11838 z m 88.735813,-31.3229 c 0.67541,-0.61196 1.38949,-0.98748 1.58685,-0.83449 0.19736,0.15299 0.43748,-0.81975 0.53359,-2.16164 0.0961,-1.34189 0.53423,-2.79927 0.97358,-3.23863 1.27417,-1.27416 1.01212,-3.54937 -0.45292,-3.93249 -0.68846,-0.18003 -1.31433,-0.28177 -1.39082,-0.22608 -0.0765,0.0557 -0.63978,-0.39944 -1.25174,-1.0114 -0.61196,-0.61196 -1.62813,-1.11266 -2.25815,-1.11266 -0.63002,0 -1.00697,-0.22411 -0.83768,-0.49803 0.42628,-0.68974 -1.045,-1.17095 -3.58011,-1.17095 -2.8508,0 -4.25352,0.52812 -3.24553,1.22195 1.05282,0.72468 -18.43092,-0.0232 -19.93431,-0.76515 -0.66268,-0.32706 -1.33635,-1.0974 -1.49704,-1.71187 -0.21081,-0.80614 -0.6111,-1.0338 -1.43768,-0.81764 -1.08305,0.28322 -1.14531,0.0673 -1.14157,-3.9599 0.002,-2.34271 0.16355,-5.94931 0.35861,-8.01468 l 0.35466,-3.75521 h 14.36451 c 16.90364,0 15.74156,0.54152 15.77435,-7.35077 0.0297,-7.14232 0.81917,-6.77016 -15.15885,-7.14573 -7.25656,-0.17057 -12.38013,-0.35834 -11.38569,-0.41725 2.72256,-0.16129 2.17132,-1.0654 -0.90779,-1.48889 -2.60499,-0.35828 -2.72964,-0.45692 -3.05368,-2.4166 -0.18581,-1.12369 -0.34058,-3.48423 -0.34395,-5.24564 -0.005,-2.7269 0.20045,-3.38218 1.3847,-4.41187 0.76495,-0.66511 1.39082,-1.66485 1.39082,-2.221632 0,-0.945855 0.7763,-1.014998 11.82197,-1.052944 13.64427,-0.04688 17.4987,-0.445934 18.57915,-1.92355 0.49813,-0.681237 0.75326,-2.685609 0.75326,-5.917938 0,-4.462888 -0.10882,-4.956762 -1.25174,-5.681104 -1.00418,-0.636412 -5.76279,-0.868178 -24.06119,-1.171888 -19.82996,-0.329131 -22.954803,-0.269387 -23.922119,0.457366 -1.093828,0.821804 -1.112656,1.485484 -1.112656,39.22098 0,21.11176 0.208124,38.59374 0.462497,38.84884 0.52499,0.52649 22.051868,1.12898 38.006278,1.06372 9.83792,-0.0402 10.74627,-0.12865 11.88039,-1.15623 z" id="path540" stroke-width="0.556328" fill="#2a7fff" />
  <path d="m 210.42118,344.36718 c -0.38217,-0.61196 -1.17423,-1.11266 -1.76012,-1.11266 -1.62585,0 -4.53598,-2.74732 -5.70177,-5.38278 -0.5741,-1.29785 -1.28704,-2.51005 -1.58431,-2.69377 -0.34469,-0.21303 -0.54049,-23.47442 -0.54049,-64.21083 0,-54.11379 0.1192,-63.97573 0.77991,-64.52407 0.42895,-0.35599 0.93346,-1.25905 1.12113,-2.00679 0.20223,-0.80576 0.87701,-1.494 1.6566,-1.68967 0.72346,-0.18157 2.14567,-1.18678 3.16047,-2.23378 l 1.84508,-1.90365 h 62.66974 c 61.96319,0 62.68108,0.0125 63.67667,1.11266 0.55382,0.61196 1.43818,1.11265 1.96525,1.11265 0.52708,0 1.24493,0.34535 1.59524,0.76745 0.35031,0.42209 1.38235,0.91653 2.29343,1.09875 1.49536,0.29907 1.65651,0.54074 1.65651,2.4843 0,1.44646 0.36513,2.48343 1.11266,3.15993 1.0997,0.99522 1.11265,1.71348 1.11265,61.71502 0,60.01963 -0.0126,60.71889 -1.11265,61.66077 -0.61196,0.52397 -1.11266,1.32993 -1.11266,1.79102 0,1.11939 -3.53387,4.97866 -5.89521,6.43804 -1.52617,0.94323 -1.89339,1.52139 -1.89339,2.98103 v 1.81084 l -28.46423,0.3691 c -15.65533,0.203 -43.63405,0.36909 -62.17494,0.36909 -33.1082,0 -33.72312,-0.0199 -34.40557,-1.11265 z m 94.80792,-32.48289 c 1.33565,-1.47528 2.58286,-3.29748 2.77156,-4.04933 0.47578,-1.89566 -1.35012,-5.73305 -3.03218,-6.37256 -0.74219,-0.28218 -7.17887,-0.67215 -14.30372,-0.86658 -16.14068,-0.44049 -20.68359,0.13632 -23.55758,2.99107 -1.74251,1.73085 -1.85827,2.06529 -1.60982,4.65093 0.27623,2.87475 1.76193,5.13342 4.04367,6.14747 0.61196,0.27196 8.34572,0.42402 17.18612,0.3379 l 16.07347,-0.15657 z m -61.49328,1.41979 c 0.72972,-0.56176 3.70507,-2.6503 6.61189,-4.6412 2.90681,-1.9909 10.21416,-7.2267 16.23854,-11.63509 6.02439,-4.4084 12.76746,-9.26701 14.98461,-10.79691 2.21715,-1.52991 5.79993,-4.34468 7.96173,-6.25505 2.1618,-1.91037 5.85321,-4.97502 8.20313,-6.81035 4.38032,-3.42112 5.12136,-4.54707 5.0089,-7.6107 -0.0903,-2.45872 -3.04113,-7.73098 -6.17605,-11.03461 -1.45178,-1.52991 -3.48792,-3.90821 -4.52476,-5.28512 -1.03684,-1.37691 -4.95945,-5.68001 -8.71692,-9.56243 -3.75747,-3.88242 -6.83176,-7.39978 -6.83176,-7.81634 0,-0.71048 -8.4557,-8.86517 -12.69774,-12.24571 -2.09207,-1.66719 -4.44681,-1.94212 -8.61362,-1.00568 -1.28292,0.28832 -3.00037,0.66342 -3.81654,0.83356 -1.82953,0.38137 -3.80117,3.3993 -3.80117,5.81834 0,1.46446 1.3767,3.36087 8.20585,11.30358 4.51321,5.24914 10.23869,11.93817 12.72329,14.8645 2.4846,2.92633 6.17723,7.19353 8.20584,9.48266 2.02862,2.28912 3.68839,4.57604 3.68839,5.08205 0,0.506 -0.60688,1.31765 -1.34863,1.80366 -0.74174,0.48601 -1.49246,1.33685 -1.66827,1.89076 -0.34377,1.08313 -2.90781,2.81174 -5.60619,3.77956 -1.61789,0.58028 -10.09563,6.49129 -26.12374,18.2145 -15.04663,11.00534 -17.54802,13.44304 -17.54802,17.10116 0,3.98762 2.66313,5.5379 9.52163,5.54281 3.80105,0.003 5.0674,-0.20793 6.11961,-1.01795 z" id="path616" stroke-width="0.556328" fill="#214478" />
  </g>
</svg>